<svg version="1.2" xmlns="http://www.w3.org/2000/svg" viewBox="0 0 2040 1960" width="2040" height="1960">
	<title>logo-korch-svg</title>
	<style>
		.s0 { fill: #232330 } 
	</style>
	<path id="Layer" class="s0" d="m1059.9 406.3l-18.4-1.6 2-22.8 19.7 1.7q6.9 0.6 10.6 3.8 3.9 3.2 3.5 8.2-0.4 4.9-4.9 8.2-4.5 3.2-12.5 2.5z"/>
	<path id="Layer" class="s0" d="m1058.4 433.2q19.3 1.7 18.2 14.3-0.4 5.1-5.1 8-4.6 2.9-12.6 2.2l-22-2 2.1-24.1z"/>
	<path id="Layer" class="s0" d="m685 519.8l-17.1-23.9 16-11.5q4.9-3.6 10.5-2.4 5.5 0.9 9.3 6.2 3.3 4.7 2.8 10.7-0.7 5.9-5.7 9.5z"/>
	<path id="Layer" class="s0" d="m587.5 670.5q-15.8 2.1-28-7.4-12-9.1-14.1-25-1.8-16.1 7.7-28.5 9.6-12.6 25.4-14.7 15.9-2.2 27.8 7 12.4 9.5 14.2 25.4 2.1 15.8-7.5 28.4-9.5 12.4-25.5 14.8z"/>
	<path id="Layer" fill-rule="evenodd" class="s0" d="m374.1 974.6c0-358.8 290-649.7 647.7-649.7 357.7 0 647.7 290.9 647.7 649.7 0 358.9-290 649.7-647.7 649.7-357.7 0-647.7-290.8-647.7-649.7zm647.7-472.2c-260 0-470.8 211.4-470.8 472.2 0 260.9 210.8 472.3 470.8 472.3 260 0 470.8-211.4 470.8-472.3 0-260.8-210.8-472.2-470.8-472.2zm76-134q-11.6-11-33.9-13l-49.3-4.2-11.3 129.8 56.2 4.9q20.2 1.8 33.4-7.6 13.6-9.4 15.1-26.7 0.9-9.7-2.6-18.1-3.3-8.3-9.9-13.5 5.1-3.8 8.5-9.8 3.5-6.1 4.1-12.3 1.6-18.5-10.3-29.5zm-165 121.1l32-4.2-16.7-129.3-31.9 4.2zm-39.9 6.4l-44.7-122.5-30.1 11.1 19.3 52.8-2.5 1.9q-2.6 2-7.2 4.9-4.7 2.7-9 4.3-6.8 2.5-11.6 0.2-4.9-2.2-7-8l-15.9-43.4-29.5 10.8 16.2 44.5q3.5 9.4 9 15.7 5.6 6.3 12.6 9.4 7 3.1 15.3 3.1 8.3-0.2 17.2-3.5 12.2-4.4 22.6-11.9l15.3 41.6zm-165.7 83.1l-26-36.3 15.8-11.4q16.6-11.9 20.1-29 3.2-17.2-7.8-32.5-11-15.4-28.1-17.7-17.1-2.5-34 9.6l-41.5 29.9 75.8 105.9zm-91.2 94.5q17.8-23.3 14.6-51.4-3.3-28.3-25.3-45.2-22-17-49.9-12.6-27.8 4.3-45.5 27.5-17.9 23.4-14.8 51.3 3.1 28 25.2 45 22.1 17 49.9 12.9 27.9-4.1 45.8-27.5zm-172.7 24.3l-15.2 38.4 28.2 47.6-40.6-16.1-11.9 30 120.8 48.1 11.9-30.1-41.3-16.4 54.9-17.9 15.4-39.1-83.2 29zm774.3-163.4l44.9-122.3-29.5-10.9-16.3 44.5-41.9-15.5 16.4-44.5-29.3-10.8-45 122.3 29.3 10.8 18.5-50.4 41.9 15.5-18.5 50.4zm169.5-42.7l-69.3 28.6-12.1 8.6-0.6-0.5 10.1-12 37.7-50.4-25.1-19-78 104.3 27.3 20.6 69.4-28.5 12.1-8.6 0.7 0.4-9.7 11.4-38.2 51.1 25.1 18.9 78-104.3zm38 237.9l19.4-86.2 82.8 5.6-24.5-33.2-55.1-1.1 35.1-26.1-19.2-26-104.5 77.6 19.2 26 35.7-26.5-13.8 56.1zm157.4 46.6l-73.6-14.1-14.8 0.5-0.2-0.8 15-4.4 59.1-21.4-10.7-29.7-122.2 44.3 11.6 32.2 73.7 14.4 14.8-0.5 0.3 0.7-14.3 4.1-59.9 21.8 10.7 29.6 122.2-44.3zm-1143.5 235.7c0 47.2 10.9 108.1 32.6 167.7 21.7 59.6 54.3 118.3 98.1 160.9l8.2-8.5c-42.1-41-73.9-98-95.2-156.5-21.3-58.5-31.9-118-31.9-163.6zm988.7 332.1c32.3-30.7 66.1-81.5 91.9-137.2 25.8-55.8 43.8-117.3 43.8-169.6h-11.8c0 49.9-17.3 109.7-42.7 164.6-25.4 54.9-58.5 104.3-89.4 133.6zm-783.5 72c90.3 77 229.9 135.8 391.6 125.6l-0.8-11.8c-158.4 10-295-47.7-383.2-122.8zm522.4 97.5c22-5.6 49.3-16.5 73.7-28.1 24.4-11.6 46.5-24 58.1-32.9l-7.1-9.4c-10.6 8.1-31.9 20.1-56 31.6-24.2 11.4-50.6 22-71.6 27.4z"/>
</svg>