<svg version="1.2" xmlns="http://www.w3.org/2000/svg" viewBox="0 0 2040 1960" width="2040" height="1960"><style>.a{fill:#fff}.b{fill:#d6b68f}</style><path fill-rule="evenodd" class="a" d="m372.1 979.6c0-358.8 290-649.7 647.7-649.7 357.7 0 647.7 290.9 647.7 649.7 0 358.9-290 649.7-647.7 649.7-357.7 0-647.7-290.8-647.7-649.7zm647.7-472.2c-260 0-470.8 211.4-470.8 472.2 0 260.9 210.8 472.3 470.8 472.3 260 0 470.8-211.4 470.8-472.3 0-260.8-210.8-472.2-470.8-472.2z"/><path class="b" d="m1070.8 979.6c0 28.3-22.8 51.2-51 51.2-28.1 0-50.9-22.9-50.9-51.2 0-28.2 22.8-51.1 50.9-51.1 28.2 0 51 22.9 51 51.1z"/><path fill-rule="evenodd" class="b" d="m1432.4 979.6c0 228.6-184.7 413.9-412.6 413.9-227.9 0-412.6-185.3-412.6-413.9 0-228.5 184.7-413.9 412.6-413.9 227.9 0 412.6 185.4 412.6 413.9zm-604.8-321c-36.5 18.3-41.8 66.5-12.2 94.8l87.6 83.9c15.2 14.5 37.5 18.6 56.8 10.4l7.5-3.2c19.3-8.2 31.9-27.2 32-48.3l0.8-121.4c0.3-41-38-70.7-76.5-57.1-15.4 5.5-32 11.8-48.7 18.9-16.6 7.1-32.7 14.7-47.3 22zm213.2 137.6c0.2 21.1 12.8 40.1 32.1 48.3l7.4 3.2c19.4 8.2 41.7 4.1 56.9-10.4l87.6-83.9c29.6-28.3 24.3-76.5-12.2-94.8-14.6-7.3-30.7-14.9-47.3-22-16.7-7.1-33.3-13.4-48.7-18.9-38.5-13.6-76.8 16.1-76.5 57.1zm-225.5 409.6c-29.6 28.3-24.3 76.5 12.3 94.8 14.6 7.3 30.6 14.9 47.3 22 16.7 7.1 33.2 13.4 48.6 18.9 38.5 13.7 76.8-16.1 76.5-57l-0.7-121.5c-0.1-21.1-12.7-40-32-48.3l-7.5-3.1c-19.3-8.3-41.7-4.2-56.9 10.3zm224.8 78.7c-0.3 41 38 70.7 76.5 57 15.4-5.4 32-11.7 48.6-18.8 16.7-7.1 32.8-14.7 47.4-22 36.5-18.3 41.8-66.6 12.2-94.9l-87.6-83.8c-15.2-14.5-37.5-18.6-56.9-10.4l-7.4 3.2c-19.3 8.2-31.9 27.2-32.1 48.2zm-380.8-401.7c-13.6 38.6 16 77 56.9 76.8l121.1-0.8c21-0.1 39.9-12.7 48.1-32.1l3.2-7.5c8.2-19.4 4.1-41.8-10.4-57l-83.6-87.9c-28.2-29.7-76.3-24.4-94.5 12.3-7.3 14.6-14.9 30.7-22 47.4-7 16.8-13.3 33.4-18.8 48.8zm586.4 302.2c28.1 29.7 76.3 24.4 94.5-12.3 7.3-14.6 14.8-30.7 21.9-47.4 7.1-16.8 13.4-33.4 18.8-48.8 13.7-38.6-16-77-56.8-76.8l-121.1 0.8c-21 0.1-39.9 12.7-48.1 32.1l-3.2 7.5c-8.2 19.4-4.1 41.8 10.4 57zm-552.1-23.6c16.9 37.3 64.8 44.3 94 15.6l86.6-84.9c15-14.7 19.9-37 12.3-56.7l-2.9-7.5c-7.5-19.7-25.9-33-46.9-33.9l-121-4.9c-40.8-1.7-71.8 35.6-59.5 74.7 4.9 15.6 10.6 32.4 17.1 49.4 6.5 17 13.5 33.3 20.3 48.2zm631-191.2c40.8 1.7 71.8-35.6 59.5-74.7-4.9-15.6-10.6-32.4-17.1-49.4-6.5-17-13.5-33.3-20.2-48.2-17-37.3-64.9-44.3-94.1-15.6l-86.6 84.9c-15 14.7-19.9 37-12.3 56.7l2.9 7.5c7.5 19.7 25.9 33 46.9 33.8zm-304.7 75.4c36.3 0 65.7-29.5 65.7-65.9 0-36.5-29.4-66-65.7-66-36.3 0-65.8 29.5-65.8 66 0 36.4 29.5 65.9 65.8 65.9zm39.4-191.3c-16.3 0-29.6 13.3-29.6 29.7 0 16.4 13.3 29.7 29.6 29.7 16.4 0 29.6-13.3 29.6-29.7 0-16.4-13.2-29.7-29.6-29.7zm64.1 110.5c-16.3 0-29.6 13.3-29.6 29.7 0 16.4 13.3 29.7 29.6 29.7 16.4 0 29.6-13.3 29.6-29.7 0-16.4-13.2-29.7-29.6-29.7zm-82.2 89.1c-16.3 0-29.6 13.3-29.6 29.6 0 16.4 13.3 29.7 29.6 29.7 16.4 0 29.6-13.3 29.6-29.7 0-16.3-13.2-29.6-29.6-29.6zm-111.7-52.8c-16.4 0-29.6 13.3-29.6 29.7 0 16.4 13.2 29.7 29.6 29.7 16.3 0 29.5-13.3 29.5-29.7 0-16.4-13.2-29.7-29.5-29.7zm13.1-122c-16.3 0-29.6 13.3-29.6 29.6 0 16.4 13.3 29.7 29.6 29.7 16.3 0 29.6-13.3 29.6-29.7 0-16.3-13.3-29.6-29.6-29.6z"/><path class="a" d="m932.8 1052.2c3.2 0.2 6.4-1.1 8.5-3.6l4.2-4.8 3.5-5.4c1.8-2.7 2.3-6.2 1.3-9.4l-2-6.2-2.7-5.8c-1.4-3-4.1-5.2-7.3-5.9l-6.1-1.3-6.2-0.5c-3.2-0.2-6.3 1.1-8.5 3.6l-4.2 4.8-3.5 5.4c-1.8 2.8-2.3 6.3-1.2 9.4l1.9 6.2 2.7 5.8c1.4 3 4.1 5.2 7.3 5.9l6.1 1.3z"/><path class="a" d="m1120 973.1c-3.2-0.3-6.4 1.1-8.5 3.5l-4.2 4.9-3.5 5.3c-1.8 2.8-2.3 6.3-1.3 9.5l2 6.1 2.7 5.8c1.4 3 4.1 5.2 7.3 5.9l6 1.3 6.3 0.5c3.2 0.2 6.3-1.1 8.5-3.6l4.2-4.8 3.5-5.3c1.8-2.8 2.2-6.3 1.2-9.5l-1.9-6.1-2.7-5.9c-1.4-3-4.1-5.1-7.3-5.8l-6.1-1.4z"/><path class="a" d="m1056 862.1c-3.2-0.3-6.4 1.1-8.5 3.5l-4.2 4.9-3.5 5.3c-1.8 2.8-2.3 6.3-1.3 9.5l2 6.1 2.7 5.8c1.4 3 4.1 5.2 7.3 5.9l6 1.3 6.3 0.5c3.2 0.2 6.3-1.1 8.5-3.6l4.2-4.8 3.5-5.3c1.8-2.8 2.2-6.3 1.2-9.5l-1.9-6.1-2.7-5.9c-1.4-3-4.1-5.1-7.3-5.8l-6.1-1.4z"/><path class="a" d="m1038 1062.1c-3.2-0.3-6.4 1.1-8.5 3.5l-4.2 4.9-3.5 5.3c-1.8 2.8-2.3 6.3-1.3 9.5l2 6.1 2.7 5.8c1.4 3 4.1 5.2 7.3 5.9l6 1.3 6.3 0.5c3.2 0.2 6.3-1.1 8.5-3.6l4.2-4.8 3.5-5.3c1.8-2.8 2.2-6.3 1.2-9.5l-1.9-6.1-2.7-5.9c-1.4-3-4.1-5.1-7.3-5.8l-6.1-1.4z"/><path class="a" d="m939 887.1c-3.2-0.3-6.4 1.1-8.5 3.5l-4.2 4.9-3.5 5.3c-1.8 2.8-2.3 6.3-1.3 9.5l2 6.1 2.7 5.8c1.4 3 4.1 5.2 7.3 5.9l6 1.3 6.3 0.5c3.2 0.2 6.3-1.1 8.5-3.6l4.2-4.8 3.5-5.3c1.8-2.8 2.2-6.3 1.2-9.5l-1.9-6.1-2.7-5.9c-1.4-3-4.1-5.1-7.3-5.8l-6.1-1.4z"/><path fill-rule="evenodd" class="a" d="m565.5 979.6c0-252.2 203.8-456.7 455.3-456.7 251.5 0 455.4 204.5 455.4 456.7 0 252.3-203.9 456.8-455.4 456.8-251.5 0-455.3-204.5-455.3-456.8zm455.3-433.2c-238.5 0-431.9 194-431.9 433.2 0 239.3 193.4 433.3 431.9 433.3 238.6 0 431.9-194 431.9-433.3 0-239.2-193.3-433.2-431.9-433.2z"/><path fill-rule="evenodd" class="a" d="m1699 969.6c0.1 12.7 0 25.2-0.6 37.9l-0.3 0.3c2.6-0.3 5.4-0.5 8.1-0.7 5.1 7.7 10.3 15.7 15.1 23.7q-0.5 5.5-1 11.1c-0.8 9-1.6 18.1-2.8 27.1q-0.8 5.7-1.6 11.3c-1.2 8.9-2.5 17.8-4.3 26.7-6.9 6.6-13.7 12.8-20.4 19.1-2.7-1.1-5.2-1.9-7.9-2.8q-3.9 18-8.8 36l23.4 7.3c-2.1 7.7-4.5 15.3-6.9 22.9q-2.1 6.9-4.2 13.8c-4.3 12-8.6 24-13.2 36l-23-8.2c-4.7 11.9-9.7 23.3-14.9 34.8l7.8 2.6c1.7 9.1 3.3 18.3 4.8 27.7-3.8 8.1-8.1 15.9-12.5 23.8q-2.8 5-5.5 10.1c-4.2 7.4-8.6 14.7-13.1 21.9-2.2 3.7-4.5 7.3-6.7 11-7.5 2.9-15 5.6-22.3 8.3q-2 0.7-4 1.4-1.9-1.8-3.9-3.6-1.1-1-2.2-2c-6.9 10.3-14.2 20.4-21.8 30.1l18.7 15.8c-5.3 7.2-11 13.9-16.6 20.7-2.6 3-5.2 6-7.7 9.1-6.2 7.3-12.8 14.3-19.3 21.3q-3.3 3.5-6.5 7l-18.2-16.5c-8.9 9.1-18.1 17.8-27.2 26.3q1.5 1.3 3.1 2.7 1.5 1.4 3.1 2.7c-1.9 9-3.8 18.1-6.1 27.3-6.1 5.4-12.5 10.5-18.9 15.6-3.6 2.9-7.2 5.8-10.7 8.7-10.1 7.7-20.5 15.2-30.9 22.6-9.3-0.1-18.7-0.5-27.9-1-1.2-2.6-2.4-5-3.6-7.5-10.3 6.6-20.9 13.2-31.6 19.3l11.3 21.8c-7.1 4-14.3 7.8-21.6 11.6q-6 3.2-12.1 6.5-6.1 2.8-12.1 5.7c-7.5 3.6-14.9 7.2-22.5 10.4l-10.6-22.2c-11.5 4.8-23.2 9.5-35 13.9 1.4 2.4 2.6 4.8 3.8 7.3-5.2 7.6-10.4 15.3-16 23.1-12.1 3.8-24.2 7.7-36.6 11.1-4.3 1.1-8.7 2.2-13.1 3.4-7.9 2-15.9 4.1-24 5.7-7.1-3-14.1-6.2-20.9-9.4q-2.3-1.1-4.6-2.1 0-1.2-0.2-2.5c-0.1-1.9-0.3-3.8-0.3-5.7-12.1 2.3-24.2 4.2-36.5 5.8l2.2 24.5q-6.2 0.6-12.5 1.3c-8.5 0.9-17.1 1.8-25.6 2.3-4.3 0.2-8.6 0.5-12.9 0.7-8.5 0.5-16.9 0.9-25.5 0.9l-1.2-24.5c-12.6 0.2-25.1 0-37.8-0.5 0.4 2.6 0.6 5.4 0.7 8.1-7.6 5.1-15.6 10.3-23.6 15.2q-5.5-0.6-11-1c-9.1-0.8-18.1-1.6-27.1-2.9q-5.6-0.8-11.2-1.6c-8.9-1.2-17.8-2.4-26.6-4.3-6.6-6.9-12.8-13.7-19.1-20.5 1.1-2.6 1.9-5.2 2.8-7.8q-17.9-3.9-35.9-8.9l-7.3 23.5q-11.4-3.3-22.8-6.9-6.9-2.2-13.7-4.2l-0.1-0.1c-11.9-4.3-23.9-8.6-35.8-13.2l8.1-23.1c-11.8-4.7-23.2-9.7-34.7-14.9l-2.6 7.8c-9 1.7-18.2 3.3-27.5 4.9-8.2-3.9-15.9-8.3-23.7-12.6q-5.1-2.8-10.1-5.5c-7.4-4.2-14.7-8.7-21.9-13.2q-5.5-3.3-10.9-6.7c-3-7.5-5.6-15-8.3-22.4q-0.7-2-1.4-4 1.8-2 3.6-3.9 0.9-1.1 1.9-2.2c-10.2-6.9-20.3-14.3-30-21.9l-15.7 18.8c-7.2-5.3-13.9-11-20.6-16.7-3-2.5-6-5.1-9.1-7.7-7.3-6.2-14.3-12.8-21.3-19.3q-3.4-3.3-7-6.6l16.5-18.2c-9-8.9-17.7-18.1-26.2-27.4q-1.3 1.6-2.7 3.2-1.3 1.6-2.6 3.1c-9.1-1.9-18.1-3.8-27.3-6.1-5.4-6.1-10.5-12.5-15.6-18.9-2.8-3.6-5.7-7.3-8.6-10.8-7.7-10.1-15.1-20.5-22.6-31 0.2-9.4 0.5-18.8 1.1-28 2.6-1.2 5-2.4 7.4-3.6-6.7-10.3-13.2-20.9-19.2-31.7l-21.7 11.3c-4-7-7.8-14.3-11.6-21.6q-3.2-6.1-6.4-12.1c-1.9-4.1-3.9-8.2-5.8-12.2-3.5-7.5-7.1-14.9-10.4-22.6l22.2-10.6c-4.8-11.5-9.5-23.3-13.8-35.1-2.5 1.4-4.9 2.6-7.3 3.8-7.6-5.2-15.3-10.4-23.1-16-3.8-12.2-7.6-24.4-11.1-36.7q-1.5-6.6-3.3-13.2c-2-8-4.1-16-5.7-24 3-7.2 6.2-14.2 9.4-21.1q1-2.2 2.1-4.5 1.2-0.1 2.5-0.2c1.8-0.2 3.7-0.3 5.6-0.3-2.2-12.2-4.2-24.4-5.7-36.7l-24.5 2.3q-0.6-6.3-1.2-12.6c-0.9-8.6-1.8-17.2-2.4-25.7q-0.3-6.5-0.6-12.9c-0.5-8.5-1-17-1-25.6l24.5-1.5c-0.2-12.7 0-25.2 0.5-37.9-2.6 0.3-5.4 0.5-8.1 0.7-5.1-7.7-10.3-15.7-15.1-23.7q0.5-5.5 1-11.1c0.8-9.1 1.6-18.2 2.8-27.2q0.8-5.6 1.6-11.2c1.2-8.9 2.5-17.9 4.3-26.7 6.9-6.6 13.7-12.8 20.4-19.1 2.6 1 5.2 1.9 7.8 2.8q3.9-18 8.9-36l-23.4-7.3c2.1-7.7 4.5-15.4 6.9-23q2.1-6.8 4.2-13.7c4.3-12 8.6-24 13.2-36l23 8.2c4.7-11.9 9.7-23.4 14.9-34.8l-7.8-2.6c-1.7-9.1-3.3-18.3-4.8-27.7 3.8-8.1 8.1-15.9 12.5-23.8q2.7-5 5.5-10.1c4.2-7.4 8.6-14.7 13.1-22q3.4-5.4 6.7-10.9c7.5-2.9 15-5.6 22.3-8.3q2-0.7 4-1.4 1.9 1.8 3.9 3.6 1.1 1 2.2 1.9c6.9-10.2 14.2-20.3 21.8-30l-18.7-15.9c5.3-7.2 10.9-13.9 16.6-20.6q3.9-4.5 7.7-9.1c6.2-7.3 12.8-14.3 19.3-21.3q3.3-3.5 6.5-7.1l18.2 16.6c8.9-9.1 18-17.8 27.2-26.3q-1.5-1.3-3.1-2.7-1.5-1.4-3.1-2.7c1.9-9 3.8-18.1 6.1-27.3 6.1-5.5 12.5-10.6 18.9-15.7 3.6-2.8 7.2-5.7 10.7-8.6 10.1-7.7 20.5-15.2 30.9-22.7 9.3 0.2 18.7 0.6 27.9 1.1 1.2 2.6 2.4 5 3.6 7.5 10.3-6.6 20.8-13.3 31.6-19.3l-11.3-21.8c7.1-4 14.3-7.8 21.6-11.7q6-3.1 12.1-6.4 6.1-2.8 12.1-5.7c7.5-3.6 14.9-7.2 22.5-10.4l10.6 22.2c11.4-4.8 23.2-9.5 35-13.9-1.4-2.4-2.6-4.9-3.8-7.3 5.2-7.6 10.4-15.3 16-23.1 12.1-3.9 24.2-7.7 36.5-11.2q6.6-1.5 13.2-3.3c7.9-2.1 15.9-4.1 24-5.7 7.1 3 14.1 6.2 20.9 9.4q2.3 1 4.5 2.1 0.1 1.2 0.2 2.5c0.2 1.8 0.4 3.7 0.4 5.7 12.1-2.3 24.2-4.2 36.5-5.8l-2.2-24.5q6.2-0.6 12.5-1.3c8.5-0.9 17.1-1.8 25.6-2.4q6.5-0.2 12.9-0.6c8.5-0.5 16.9-0.9 25.4-0.9l1.6 24.5c12.7-0.2 25.2 0 37.8 0.5-0.3-2.6-0.5-5.4-0.7-8.2 7.6-5 15.6-10.2 23.6-15.1q5.5 0.5 11.1 1c9 0.8 18.1 1.6 27 2.8q5.7 0.9 11.3 1.6c8.9 1.3 17.7 2.5 26.5 4.3 6.6 7 12.9 13.8 19.1 20.6-1 2.6-1.9 5.2-2.8 7.8q18 3.9 35.9 8.9l7.3-23.5c12.3 3.5 24.5 7.3 36.6 11.1 12 4.4 23.9 8.7 35.9 13.2l-8.2 23.2c11.8 4.7 23.3 9.7 34.7 14.9l2.6-7.8c9-1.7 18.2-3.3 27.6-4.9 8.1 3.9 15.9 8.2 23.7 12.6q5 2.8 10.1 5.5c7.4 4.2 14.6 8.7 21.9 13.2q5.4 3.3 10.9 6.6c2.9 7.6 5.6 15.1 8.2 22.5q0.7 2 1.5 4c-1.3 1.2-2.5 2.6-3.7 3.9q-0.9 1.1-1.9 2.2c10.2 6.9 20.3 14.2 30 21.9l15.8-18.8c7.2 5.3 13.8 11 20.5 16.7q4.5 3.8 9.1 7.6c7.3 6.3 14.3 12.9 21.3 19.4q3.5 3.3 7 6.6l-16.5 18.2c9 8.9 17.7 18.1 26.2 27.3q1.3-1.5 2.7-3.1 1.4-1.6 2.7-3.1c9 1.9 18 3.8 27.2 6.1 5.4 6.1 10.5 12.5 15.6 18.9 2.9 3.6 5.7 7.2 8.7 10.8 7.6 10.1 15.1 20.5 22.5 31-0.2 9.3-0.5 18.7-1 28q-3.9 1.8-7.5 3.6c6.6 10.3 13.2 20.9 19.3 31.7l21.6-11.3c4.1 7 7.9 14.3 11.7 21.6q3.1 6.1 6.4 12.1c1.9 4.1 3.8 8.2 5.7 12.2 3.6 7.5 7.1 14.9 10.4 22.6l-22.2 10.6c4.9 11.5 9.5 23.3 13.9 35.1 2.4-1.4 4.8-2.6 7.2-3.8h0.1c7.6 5.2 15.2 10.4 23 16 3.8 12.2 7.6 24.3 11.1 36.7q1.6 6.6 3.3 13.2c2.1 7.9 4.2 15.9 5.7 24-3 7.1-6.2 14.2-9.3 21.1q-1.1 2.2-2.1 4.5-1.2 0.1-2.5 0.2c-1.9 0.1-3.8 0.3-5.7 0.3 2.3 12.2 4.2 24.3 5.8 36.7l24.4-2.3q0.6 6.3 1.3 12.5c0.9 8.6 1.8 17.3 2.3 25.8 0.2 4.3 0.5 8.6 0.7 12.9 0.4 8.5 0.9 17 0.9 25.5zm-679.1-639.6c-357.7 0-647.7 290.9-647.7 649.7 0 358.8 290 649.7 647.7 649.7 357.7 0 647.7-290.9 647.7-649.7 0-358.8-290-649.7-647.7-649.7z"/></svg>