<svg version="1.2" xmlns="http://www.w3.org/2000/svg" viewBox="0 0 2040 1960" width="2040" height="1960">
	<title>wheel-and-wrenches-svg</title>
	<style>
		.s0 { fill: #ffffff } 
		.s1 { fill: #232330 } 
		.s2 { fill: #ffd9ab } 
		.s3 { fill: #93715e } 
	</style>
	<path id="Layer" fill-rule="evenodd" class="s0" d="m2019.2 269.5c11.7 7.3 23.2 23 19.1 45.1-0.3 1.8-0.8 4-1.5 7-1 4.4-2.5 10.2-4.3 16.6-4.6 16.3-15 39.9-23.1 54.8-12 22.1-22.4 36.1-39.7 53.5l-0.1 0.2c-13.3 13.2-32 28.5-44.7 36.6-12.9 8.2-31.9 17.7-45.2 22.6q-0.1 0-0.2 0-0.1 0.1-0.3 0.1c-20.4 7.4-89 20.4-96.8 21.9-44.3 8.2-78.1 16-83 17.7-6.1 2.2-17.2 7.6-22.2 10.9-5.7 4.1-16.4 13.1-22.2 19.3-0.7 0.7-5.8 6.1-12.5 13.2q0 3.8-0.2 7.7c11.3 2.5 21.3 9.7 27.2 20.1 4.3 7.6 8.4 15.4 12 22.3l0.4 0.7q0.1 0.1 0.1 0.2l0.6 1.2q2.7 5.2 5.5 10.3 0.6 1.1 1.1 2.2 0 0 0 0.1c1.6 3.5 3.3 7.1 5 10.5l0.7 1.6c3.5 7.2 7.3 15.3 10.9 23.8 4.9 11.3 4.4 23.7-0.6 34.3 2.8 1.9 5.6 3.9 8.4 5.9 7.4 5.2 13 12.9 15.7 21.6l0.1 0.3c3.6 11.4 7.6 24.4 11.3 37.6q0 0.1 0.1 0.2v0.1q0.2 0.7 0.4 1.3c0.9 4 2 8.1 3.1 12.3q0 0.2 0 0.3 0.1 0.1 0.1 0.3c2.1 8.3 4.4 16.9 6.1 26 1.6 8.2 0.8 16.6-2.5 24.3-1.3 3.3-2.8 6.6-4.2 9.8 9.9 6.9 16.7 18 17.9 30.5q0.6 6 1.2 12.1 0 0.1 0.1 0.1v0.3c0.9 8.7 1.8 17.6 2.4 26.8q0.1 0.6 0.1 1.4c0.2 3.7 0.4 7.6 0.6 11.4 0 0.2 0 1 0 1.2 0.6 9.5 1 18.2 1 27.4 0 12.3-5.3 23.5-14 31.3 1.9 3 3.9 6.1 5.8 9.3 4.7 7.7 6.8 16.8 5.9 25.8-0.3 3.6-0.6 7.1-0.9 10.7v0.1q-0.1 0.4-0.1 0.8c-0.7 8.2-1.6 18.3-3 28.3q0 0.2 0 0.3-0.1 0.2-0.1 0.3-0.5 3.6-1 7.2l-0.4 2.9q-0.1 0.3-0.1 0.6c-1.2 9-2.6 19.2-4.8 29.5-1.7 8.4-5.9 16-12.1 21.9-2.4 2.2-4.8 4.5-7.2 6.7 6.2 9.9 8.2 22.1 4.9 33.8-2.1 7.8-4.5 15.4-6.7 22.7l-0.8 2.4c-1.3 4.3-2.6 8.3-3.8 12.3-0.2 0.9-0.5 1.6-0.7 2.3-4.9 13.5-9 24.8-13.4 36.5-4.4 11.6-13.7 20.5-24.9 24.6 0.5 3.5 1.1 7 1.7 10.6 1.4 8.5 0.2 17.2-3.5 25-4.4 9.2-9.1 17.7-13.6 25.9-1.8 3.3-3.6 6.5-5.3 9.7q-0.2 0.4-0.4 0.8c-4.6 8.2-9.6 16.2-13.5 22.7q-0.3 0.4-0.5 0.8c-1.4 2.3-2.9 4.7-4.5 7.3 24.2 19.4 42.6 33.4 47.4 36.3 2.3 1.1 4.1 1.9 5.6 2.7q0.2 0.1 0.4 0.2c5 2.7 13.1 6.2 17.5 7.8 6.7 2 33.4 8.9 62.2 15.6q0.1 0 0.3 0.1 0 0 0.1 0c22.6 5.5 59.3 14.5 68 17.2q0.2 0 0.3 0.1l0.4 0.1q0.1 0 0.2 0.1c1.7 0.5 3.5 1.2 5.5 2 30 8 57.2 22.5 80.8 42.9 86.6 74.7 96 206.6 21 294-36.5 42.7-87.3 68.4-143.1 72.6-5.2 0.4-10.5 0.6-15.8 0.6-49.3 0-97-17.8-134.4-50.1-10.9-9.3-20.8-19.9-29.5-31.2-3-3.5-7.3-8.6-11.1-13.8-1.4-1.9-13.5-18.4-19.6-30.4q0-0.2-0.1-0.3l-0.3-0.7c-3.6-7.4-16.6-39-27.1-64.9q0-0.1 0-0.2 0-0.1-0.1-0.2c-10.2-25.6-21.3-52-24.6-59.2-2.2-4.1-6.9-11.7-10.3-16.3-1.3-1.7-2.5-3.5-3.9-5.6-0.1 0-0.1-0.1-0.1-0.1l-0.4-0.6c-6.1-9.2-19.6-29.2-39.8-47-3.7 3-7.3 5.9-10.4 8.4l-0.4 0.3c-0.1 0.1-0.9 0.7-0.9 0.8-3.2 2.5-6.4 5-9.4 7.5q-0.1 0.1-0.2 0.2-0.6 0.4-1.2 0.9c-10.4 7.9-21.4 15.9-31.1 22.9l-0.6 0.4c-7.3 5.2-16.3 8.1-25.3 7.9q-5.1-0.1-10.1-0.3c-2.6 11.3-9.7 21.3-20.1 27.3q-10.9 6.1-21.6 11.7c-0.3 0.1-1.7 0.9-2 1-3.4 1.8-7.3 3.8-11 5.8q-1.2 0.7-2.3 1.2c-3.9 1.8-7.9 3.8-11.7 5.5-7.3 3.6-15.5 7.5-24.1 11.2-11.3 4.8-23.7 4.4-34.2-0.5q-2.9 4.1-5.8 8.3c-5.3 7.4-13 13-21.7 15.7-11.5 3.7-24.5 7.8-37.7 11.5-0.5 0.2-1 0.3-1.4 0.4-0.1 0-0.2 0-0.3 0.1-3.9 0.9-7.9 1.9-11.8 3l-0.4 0.1q-0.1 0-0.2 0c-8 2.1-17 4.4-26.4 6.3-8.3 1.6-16.7 0.7-24.4-2.6q-4.9-2-9.5-4.1c-7 9.9-18.1 16.7-30.6 17.9-3.8 0.3-7.6 0.7-11.5 1.2l-1.5 0.1c-8.4 0.9-17.2 1.8-26.1 2.4q-0.3 0-0.5 0h-0.2q-0.3 0.1-0.7 0.1c-3.3 0.1-6.7 0.3-10.4 0.5l-1.9 0.1c-8.8 0.5-18 1-27.6 1-12 0-23.1-5.1-30.9-13.6-2.9 1.9-6 3.8-9.1 5.7-7.7 4.7-16.9 6.8-25.9 5.9q-4-0.3-8.1-0.7l-2.3-0.2h-0.3c-8.4-0.8-18.8-1.7-29.1-3.1h-0.1l-0.5-0.1c-3.5-0.5-7-1-10.6-1.5q-0.4 0-0.9-0.1c-9.3-1.3-18.7-2.6-28.6-4.7-8.4-1.8-16-6-21.9-12.2q-3.3-3.6-6.6-7.1c-9.9 6.2-22.1 8.2-33.8 4.9-8.1-2.3-16-4.8-23.5-7.1q-0.1 0-0.2-0.1h-0.2q-0.3-0.1-0.7-0.2c-3.9-1.3-8-2.5-12.1-3.8-0.8-0.2-1.8-0.5-2.9-0.9l-1.8-0.7c-11.1-4-22.9-8.3-34.5-12.7-11.6-4.4-20.5-13.7-24.6-25-3.6 0.6-7.1 1.2-10.3 1.8-8.6 1.4-17.3 0.1-25.1-3.6-9.4-4.5-18.2-9.4-25.9-13.7-2.9-1.6-6.3-3.5-9.7-5.3q-0.1-0.1-0.2-0.1l-0.5-0.3c-8.1-4.6-15.8-9.4-23.2-13.9l-0.1-0.1q-0.2-0.1-0.3-0.2l-0.4-0.2q-4.9-3.1-9.9-6.1c-7.8-4.8-14-12.1-17.3-20.6q-1.9-4.9-3.7-9.6c-11 1.9-22.7-0.7-32-7.6-7.8-5.6-14.7-11.5-20.8-16.7-20.7 17.2-34.7 36.7-41.1 45.7l-0.5 0.6c-1.4 2-2.7 3.8-3.9 5.3 0 0.1-0.1 0.1-0.1 0.1v0.1c-3.5 4.4-8.5 11.9-10.9 15.9-3.5 7.1-15.5 33.3-26.4 58.6q-0.1 0.1-0.1 0.2-0.1 0.1-0.1 0.2c-11.3 25.6-25.1 56.4-29.1 64l-0.3 0.6q-0.1 0.1-0.1 0.2c-6.5 11.8-19 28-20.4 29.8-3.2 4.1-7.1 8.6-11.6 13.5-9 11-19.2 21.2-30.4 30.3-37.1 30-82.4 46-129.5 46q-11.1 0-22.3-1.2c-55.5-5.9-105.5-33.3-140.7-77-72.3-89.7-58.8-221.3 30.1-293.3 24.2-19.6 51.9-33.2 82.1-40.4 2-0.7 3.8-1.3 5.5-1.8q0.5-0.2 1.1-0.3c8.1-2.2 41.3-9.4 68.5-15q0.1-0.1 0.3-0.1c28.9-5.8 55.8-11.9 62.6-13.6 4.4-1.5 12.6-4.8 17.6-7.2q0.2-0.1 0.4-0.2c1.8-0.9 3.8-1.7 6.7-3 3.9-1.7 25.5-14.5 49.3-30.4q0-0.9 0-1.8 0.1-5.2 0.2-10.3c-11.2-2.6-21.2-9.7-27.1-20.2-4.4-7.6-8.5-15.5-12.2-22.5l-0.2-0.4q-0.1-0.1-0.1-0.3l-1.2-2.1c-1.6-3.1-3.2-6.2-4.9-9.3q-0.5-1.1-1.1-2.3c-1.8-3.8-3.5-7.4-5.4-11.5q-0.1-0.1-0.1-0.2l-0.1-0.1c-3.5-7.3-7.4-15.6-11-24.2-4.8-11.3-4.4-23.7 0.5-34.2q-4.1-2.9-8.3-5.9c-7.4-5.3-13-13-15.7-21.7l-0.2-0.5c-3.7-12.1-7.7-24.6-11.2-37.4q-0.2-0.7-0.4-1.4 0-0.1 0-0.1c-1-4-2-8-3.1-12.1q0 0 0-0.1l-0.1-0.4c-2.1-8-4.4-17-6.2-26.4-1.6-8.2-0.8-16.6 2.4-24.2 1.4-3.4 2.8-6.6 4.3-9.9-9.9-6.9-16.7-18-17.9-30.4q-0.6-6.1-1.2-12.2c-0.8-7.8-1.9-17.6-2.5-27.2q-0.1-0.6-0.1-1.2c-0.1-3.9-0.4-8.2-0.6-11.9 0-0.1 0-0.7 0-0.9-0.5-8.2-1-17.6-1-27.3 0-12.2 5.2-23.4 13.8-31.1-2-3.1-4-6.3-5.9-9.6-4.7-7.6-6.8-16.8-6-25.7q0.5-4.4 0.8-8.8l0.2-2c0.8-9.4 1.7-19 3-29q0.1-0.5 0.1-0.9 0.8-5.1 1.5-10.3l0.1-0.4c1.2-8.9 2.6-19.1 4.7-29.4 1.8-8.4 6-16 12.2-21.9 2.3-2.1 4.6-4.4 7.2-6.7-6.3-9.9-8.3-22.1-5-33.9 2.3-7.9 4.6-15.6 7-23.1l0.2-0.8q0.1-0.2 0.1-0.3l0.8-2.4c1.1-3.6 2.2-7.2 3.2-10.7 0.2-0.7 0.5-1.5 0.7-2.2 4.4-12 8.8-24.3 13.4-36.6 4.4-11.6 13.7-20.5 25-24.6q-0.9-5.4-1.8-10.6c-1.4-8.5-0.2-17.1 3.5-24.9 4.5-9.3 9.4-18.2 13.7-26q0.1-0.2 0.2-0.3 2.6-4.7 5.1-9.5 0.1-0.2 0.3-0.4h-0.1q0.1-0.1 0.2-0.2c4.5-8 9.1-15.7 13.7-23l0.2-0.4q0-0.1 0.1-0.2c2.2-3.5 4.3-6.9 6.4-10.4q0.2-0.4 0.4-0.7c-4-3.8-7.3-6.9-8-7.6-5.9-5.6-16.6-13.9-22.3-17.6-5-3-15.9-7.7-21.8-9.5-4.9-1.5-38-7.6-81.3-13.7-7.7-1.1-75-10.8-95.3-17.1q-0.2 0-0.3-0.1-0.1 0-0.2 0c-13.3-4.3-32.3-12.8-45.3-20.2-12.8-7.4-31.8-21.5-45.2-33.8q-0.2-0.1-0.3-0.2c-17.6-16.3-28.4-29.5-41.1-50.6-8.5-14.3-19.8-36.9-24.9-52.7-2-6.1-3.7-11.6-5-16-0.8-2.9-1.4-5-1.8-6.8-5.2-22.9 6.9-39.7 18.9-46.9 18.7-11.6 35.6-4.2 43.7-0.7 3.4 1.5 8.2 3.6 13.8 6.2 11.2 5.1 26.6 12.2 43.2 19.9 35.8 16.7 59.9 26.2 64.9 27.7 1.5 0.3 2.7 0.4 3.5 0.5 1.6-0.7 3.3-1.5 4-1.9 0.8-0.6 2.5-2.1 3.2-2.9q0.1-0.2 0.3-0.3c1.6-2.5 7.7-13.5 15.3-29.5 9.3-19.4 14.7-32.3 15.5-34.4 0.1-0.5 0.2-0.9 0.4-1.3 0.5-1.4 1.7-6.7 2-10 0-1.2-0.2-2.7-0.5-4-0.5-0.6-1.3-1.6-2.4-2.5q-0.1-0.1-0.3-0.2 0-0.1-0.1-0.2c-2-1.5-14.4-9-29-15.5q-0.2-0.1-0.4-0.2h-0.1c-14.1-6.5-34.2-15.7-42.9-19.5l-6-2.6q-0.2-0.1-0.4-0.2c-7.9-3.5-18.9-8.4-34.4-15.1-15.3-6.7-25.2-21.7-25.2-38.4-0.1-16.6 9.7-31.7 24.9-38.5l17.8-8q0.2 0 0.3-0.1c10.7-4.7 28.7-11.8 28.8-11.8 2.8-1.1 5.7-1.9 8.6-2.4 0.2 0 26.7-4.4 48.1-5.7q0.4 0 0.8 0c26.6-1.4 46.4-0.9 58.7 1.4 11 2 28.6 7.2 41.8 12.3 17.6 6.7 32.3 15.6 47.6 28.8 15.4 12.8 26.6 26 37.3 44.2q0.1 0.1 0.1 0.3 0.1 0 0.1 0.1c9.3 16 17.4 35.6 26.5 63.5q0 0.2 0.1 0.4 0 0.1 0.1 0.3c5.4 17.5 14.7 43.3 19.5 54.1q0.1 0.2 0.1 0.4 0.1 0.2 0.2 0.4c4.7 11 13.8 29.1 19.5 38.8 0 0.1 0.1 0.2 0.1 0.2l0.1 0.2q0.1 0.1 0.1 0.2c5.5 9.7 15.6 24.8 21.1 31.6 5.5 6.7 21.9 23 34.9 34q0.2 0.2 0.3 0.3c0.6 0.5 3 2.3 12 8.9 5.3-4.6 10.7-8.8 15.5-12.7l1.4-1.1c3-2.5 5.9-4.8 8.8-7.1q0.6-0.5 1.3-1c10.6-8.2 21.8-16.1 31.6-23.2q0.1-0.1 0.2-0.2c7.3-5.2 16.3-8 25.3-7.8q5 0 10.1 0.2c2.5-11.2 9.6-21.2 20.1-27.2 7.5-4.4 15.1-8.3 22.4-12.2l0.4-0.2c3.3-1.7 7.7-4.1 11.7-6.2 0.7-0.4 1.4-0.7 2.2-1.1 3.6-1.7 7.1-3.4 10.9-5.2l0.9-0.4c7.7-3.7 15.7-7.5 24.1-11.2 11.3-4.8 23.7-4.4 34.2 0.5 1.9-2.7 3.9-5.4 5.8-8.2 4-5.6 9.3-10.2 15.5-13.3q3.1-1.5 6.2-2.5c10.9-3.4 24.4-7.7 37.7-11.5 0.6-0.1 1.1-0.2 1.5-0.4q0.1 0 0.2 0c3.9-0.9 8.1-2 12.2-3.1l0.4-0.1c8.4-2.2 17-4.4 26.2-6.2 8.3-1.6 16.7-0.7 24.4 2.5q4.9 2.1 9.6 4.2c6.9-9.9 17.9-16.7 30.4-17.9 4.1-0.4 8.3-0.8 11.9-1.2q0 0 0.1 0 0.2-0.1 0.3-0.1c8.7-0.9 17.7-1.8 26.9-2.4q0.7-0.1 1.3-0.1 5.9-0.3 12.1-0.6 0.2-0.1 0.4 0c8.4-0.5 17.8-1 27.5-1 12.1 0 23.3 5.1 31 13.7 3-1.9 6.2-3.9 9.3-5.8 7.8-4.7 17-6.9 26-6q3.2 0.3 6.5 0.6l3.6 0.3q0.3 0.1 0.6 0.1c9.3 0.8 18.9 1.6 28.9 3q0.4 0.1 0.8 0.1c3.5 0.6 7.2 1.1 10.7 1.6 9.4 1.3 19.1 2.6 29.4 4.7 8.4 1.8 16 6 21.9 12.3 2.2 2.3 4.4 4.6 6.6 7 9.8-6.2 22-8.1 33.8-4.8 12.9 3.6 25.9 7.7 37.4 11.4h0.3c0.6 0.2 1.2 0.4 1.8 0.7l0.3 0.1c11.8 4.2 23.9 8.6 36.1 13.2 11.6 4.4 20.4 13.8 24.5 25q5.3-0.9 10.4-1.7c8.6-1.4 17.2-0.2 25 3.5 9.1 4.4 17.5 9 25.6 13.5l0.3 0.2c4 2.2 6.9 3.8 9.7 5.3q0.1 0.1 0.2 0.2l0.6 0.2c8.2 4.7 16.2 9.6 23.2 14q0.2 0.1 0.4 0.2 5.1 3.2 10.2 6.3c7.9 4.8 14.1 12.1 17.4 20.7q1.9 4.8 3.6 9.5c11.1-1.9 22.7 0.7 32.1 7.6 8.5 6.2 15.9 12.6 22.5 18.2l2 1.7q0.3 0.2 0.6 0.5c1.5-1.2 2.2-1.8 2.5-2.1q0.1 0 0.1-0.1c12.8-11.8 28.9-29.3 34.3-36.5 5.4-7.3 15.1-23.3 20.3-33.4q0.1-0.3 0.2-0.5 0.1-0.1 0.1-0.2c5.5-10.3 14-29.3 18.3-40.8q0.1-0.4 0.3-0.8c4.5-11.5 12.7-38 17.6-56.5 0-0.1 0-0.1 0-0.1l0.1-0.4c8-29.2 15.5-49.6 24.3-66.4q0-0.1 0.1-0.2 0-0.1 0-0.1c10.1-19 20.9-32.9 36-46.7 15-14.1 29.6-23.8 47.3-31.5 13-5.7 31.1-11.9 41.9-14.4 12.6-2.9 32.8-4.2 60.2-4.1 0.1 0 0.3 0 0.4 0 19.9 0.3 44.7 3.1 49.5 3.7 0 0 0.1 0 0.2 0 2.9 0.3 5.8 1 8.6 2h0.1l0.5 0.2c12.5 4.3 22.8 8 29.3 10.5q0.1 0 0.3 0.1 0 0 0.1 0.1l18.7 7.3c15.4 6.1 25.9 20.8 26.5 37.4 0.7 16.7-8.5 32.1-23.5 39.4-14.2 7-24.7 12.2-32.3 15.9l-2.2 1.2q-0.3 0.1-0.6 0.2l-5.9 3c-7.7 3.8-26.9 13.5-43.2 21.9q-0.1 0.1-0.2 0.1-0.1 0.1-0.3 0.2c-14.7 7.3-27.1 15.6-29.2 17.4q-0.1 0.1-0.2 0.2c-0.1 0-0.1 0.1-0.2 0.1-1.3 1.2-2.2 2.4-2.6 3.1-0.3 1.4-0.5 3.2-0.4 4.7 0.5 3.4 2 8.9 2.5 10.4q0.1 0.1 0.1 0.2 0.2 0.5 0.4 1.1c0.8 2 7 15 17.5 34.7 8.6 16.2 15.4 27.2 17.2 29.6q0.2 0.3 0.4 0.5c0.8 0.8 2.8 2.5 3.6 3 0.7 0.3 2.8 1.2 4.6 1.9 0.9-0.1 2.3-0.3 4-0.7 5-1.7 29.3-12.5 65.5-31.4 16.4-8.6 31.8-16.5 43.4-22.4 6.5-3.3 10.8-5.5 13.9-7 7.9-3.9 24.6-12 43.9-1.2q0.9 0.4 1.6 1zm-162.4 1403.2c-3.5-7.2-5.1-15.2-4.8-23.2-6.2-5-11.1-11.4-14.3-18.7-7.7-1.8-14.9-5.4-20.9-10.6-7.8 1.7-15.8 1.6-23.5-0.5-6.2 5-13.6 8.4-21.5 9.9-3.5 7.3-8.7 13.5-15.2 18.3 0 8.1-2 16-5.8 23.1 3.4 7.3 5.1 15.2 4.7 23.2 6.2 5 11.1 11.4 14.3 18.8 7.7 1.7 14.9 5.4 20.9 10.6 3.5-0.8 7.2-1.2 10.9-1.2 4.3 0 8.5 0.5 12.7 1.6 6.2-5 13.6-8.4 21.5-9.8 3.4-7.3 8.6-13.6 15.2-18.4 0-8 1.9-16 5.8-23.1zm-1673.2-10.4c3.6 7.2 5.4 15.2 5.1 23.3 6.4 4.9 11.4 11.4 14.6 18.7 7.9 1.8 15.1 5.4 21.2 10.6 3.7-0.9 7.5-1.3 11.2-1.3q6.3 0 12.3 1.5c6.2-5 13.5-8.4 21.3-9.9 3.4-7.3 8.4-13.5 14.8-18.3-0.1-8.1 1.8-15.9 5.5-23.1-3.6-7.2-5.3-15.2-5.1-23.2-6.4-5.1-11.4-11.5-14.6-18.8-7.8-1.7-15.1-5.3-21.2-10.6-7.7 1.9-15.8 1.8-23.5-0.2-6.2 5-13.4 8.4-21.2 9.9-3.4 7.2-8.5 13.5-14.9 18.3 0.1 8-1.8 15.9-5.5 23.1z"/>
	<path id="Layer" fill-rule="evenodd" class="s1" d="m2010.9 279.7c3 1.7 17.5 10.9 13.8 31.3-0.4 1.7-0.8 3.7-1.4 6.3-1 4.2-2.5 9.7-4.2 16.1-4.2 15.2-14.4 38-21.9 51.9-11.3 20.8-21.1 33.9-37.3 50.3q-0.1 0.1-0.2 0.2c-12.3 12.2-30.5 27.1-42.3 34.6-12 7.6-30.3 16.8-42.6 21.3q-0.1 0.1-0.3 0.1c-15.6 5.6-66.8 16-94.6 21.3-43.1 7.9-78.6 16-85.1 18.3-7.3 2.5-19.6 8.5-25.5 12.5-6.2 4.4-17.7 14.1-24.4 21.1-0.9 1-8.4 9-16.3 17.4q0.1 1.3 0.1 2.7c-0.2 8.1-0.5 16.2-0.8 23.9 11.4-2.1 23.5 3.1 29.5 13.7 4.4 7.6 8.5 15.5 12.2 22.5 0 0.1 0 0.2 0 0.2l0.6 1q2.8 5.4 5.6 10.7 0.4 0.7 0.8 1.5c1.8 4 3.7 8 5.6 11.8l0.2 0.5c3.5 7.4 7.2 15.2 10.6 23.2 4.9 11.5 1.6 24.4-7.5 32.2 6.5 4.4 13.2 9 20 13.9 5 3.5 8.7 8.6 10.5 14.4 3.6 11.5 7.6 24.4 11.3 37.5q0.2 0.5 0.3 1.1c1 4.1 2.1 8.3 3.2 12.6q0 0.2 0.1 0.4c2.1 8.2 4.2 16.6 6 25.4 1 5.4 0.4 11-1.7 16.1-3.1 7.4-6.4 14.6-9.5 21.5l-0.2 0.3c0 0.1-0.1 0.2-0.1 0.3l-0.1 0.1c11.9 2.3 21.3 12.2 22.5 24.8q0.6 6.2 1.3 12.3 0 0.2 0 0.3v0.2c0.9 8.6 1.8 17.4 2.4 26.3q0.1 0.3 0.1 0.7c0.1 4.1 0.4 8.3 0.6 12.4v0.3c0.5 9.5 0.9 18 0.9 26.9 0 12.5-8.1 23.1-19.5 26.7 4.4 6.8 9 14 13.4 21.2 3.1 5.2 4.5 11.2 3.9 17.2q-0.5 5.4-0.9 10.8 0 0.4-0.1 0.7c-0.8 9.1-1.6 18.4-2.9 27.9q0 0.2-0.1 0.3-0.7 5.5-1.5 10.9v0.1c-1.3 9.2-2.6 18.8-4.6 28.5-1.2 5.6-4 10.7-8.1 14.6-5.9 5.6-11.7 11-17.3 16.2 9.7 6.6 14.5 18.8 11.2 30.7-2.1 7.7-4.5 15.3-6.7 22.6l-0.4 1.1c-1.5 4.8-2.8 9.1-4.1 13.5q-0.2 0.7-0.5 1.5c-4.5 12.3-8.8 24.4-13.3 36.3-4.5 11.9-16.1 18.9-28.1 18.1 1.5 8.3 2.9 16.5 4.2 24.3 0.9 5.7 0.1 11.5-2.4 16.7-4.2 8.9-8.8 17.2-13.2 25.2q-2.7 5-5.4 9.9-0.1 0.2-0.2 0.4c-4.5 7.9-9.2 15.7-13.4 22.5q-0.2 0.3-0.3 0.5c-2.1 3.4-4.3 7-6.5 10.7-1.5 2.4-3.3 4.6-5.4 6.4 26.7 21.8 53.5 42.6 60.2 46.4q0 0 0.1 0c2.3 1.1 4.1 2 5.5 2.7q0.1 0.1 0.2 0.1c5.9 3.1 15 7.1 19.8 8.8 6.8 2 34.4 9.2 63.4 15.9q0.1 0 0.2 0.1c27 6.5 59.8 14.6 67.2 16.9q0.4 0.1 0.7 0.2 2.4 0.8 5.5 2c28.2 7.5 53.8 21.1 76.1 40.3 80.7 69.6 89.5 192.7 19.5 274.3-34.2 39.8-81.6 63.8-133.6 67.7q-7.4 0.6-14.7 0.6c-46.1 0-90.1-16.3-125.3-46.7-10.3-8.8-19.6-18.8-27.8-29.5-3-3.5-7.1-8.4-10.7-13.2-4.7-6.4-13.7-19.5-18.3-28.5q-0.1-0.3-0.3-0.6c-3.3-7-16.2-38.1-26.7-64.2q0-0.1-0.1-0.1c-10.9-27.5-22.2-54.3-25.1-60.5-2.4-4.5-7.7-12.9-11.6-18.3-1.1-1.5-2.2-3.1-3.6-5.2l-0.3-0.5c-7.5-11.1-24.7-36.9-51.7-57.6-6.4 5.7-12.8 10.8-19.1 15.8q-0.2 0.2-0.5 0.4c-3.4 2.8-6.9 5.6-10.3 8.4q-0.4 0.3-0.9 0.7c-10.1 7.7-20.7 15.3-30.8 22.6l-0.7 0.4c-4.9 3.6-10.8 5.4-16.9 5.3-8.1-0.1-16.1-0.4-23.8-0.8 2.3 11.5-2.9 23.5-13.5 29.6-7.2 4.1-14.5 8-21.5 11.7l-1 0.5q-0.2 0.1-0.5 0.2c-3.8 2-7.5 4-11.3 6q-0.7 0.4-1.5 0.8c-4 1.9-7.9 3.7-11.9 5.6-7.5 3.7-15.4 7.4-23.6 10.9-11.4 4.9-24.3 1.6-32.1-7.3-4.4 6.5-9 13.1-13.8 19.9-3.5 5-8.6 8.6-14.4 10.5-11.5 3.6-24.5 7.7-37.4 11.4q-0.5 0.1-1.1 0.2c-4.1 1-8.4 2.2-12.6 3.2l-0.1 0.1c-8.2 2.1-16.7 4.3-25.6 6-5.4 1.1-11.1 0.5-16.2-1.6-7.5-3.2-14.7-6.5-21.7-9.8h-0.1l-0.2-0.1c-2.3 11.9-12.2 21.4-24.8 22.5-3.9 0.4-7.7 0.8-11.7 1.2l-1.3 0.2c-8.4 0.8-17.1 1.8-25.9 2.4q-0.4 0-0.8 0c-3.5 0.1-7 0.3-10.8 0.5l-1.7 0.1c-8.6 0.5-17.6 1-26.9 1-12.3 0-22.8-8-26.6-19.1-6.3 4.2-13.5 8.9-20.7 13.2-5.2 3.2-11.2 4.6-17.3 4q-4.1-0.4-8.2-0.7l-2.3-0.2q-0.1-0.1-0.3-0.1c-8.7-0.7-18.6-1.6-28.4-2.9q-0.2-0.1-0.5-0.1c-3.6-0.6-7.3-1.1-10.7-1.5q-0.4-0.1-0.7-0.1c-9-1.3-18.3-2.6-27.9-4.6-5.5-1.2-10.6-4-14.6-8.1-5.5-5.9-10.8-11.6-16-17.2-6.6 9.7-18.9 14.5-30.7 11.1-7.9-2.2-15.7-4.6-23.2-7l-0.4-0.1q-0.2-0.1-0.5-0.2c-4-1.2-8.2-2.5-12.4-3.8q-1.1-0.3-2.1-0.7l-1.8-0.6c-11.3-4.1-22.9-8.3-34.4-12.7-11.8-4.5-18.9-16.1-18-28.2-8.2 1.6-16.4 2.9-24.2 4.2-5.6 1-11.5 0.2-16.7-2.3-9-4.3-17.6-9.1-25.2-13.3q-4.8-2.7-9.8-5.4-0.2-0.2-0.4-0.3c-8-4.5-15.5-9.2-22.9-13.7q-0.2-0.2-0.5-0.3-5.1-3.2-10.1-6.3c-5.3-3.2-9.4-8-11.6-13.7-3-7.7-5.7-15.3-8.3-22.5-9.6 6.3-22.5 6.3-32.2-0.8-7.8-5.8-14.9-11.8-21.8-17.7q-0.1-0.1-0.3-0.2c-2.3-2-4.5-3.8-6.6-5.6-27.3 19.8-45.1 44.8-52.8 55.5l-0.2 0.2c-1.5 2.2-2.8 3.9-3.9 5.4q0 0-0.1 0c-4.1 5.2-9.6 13.6-12.2 18-3 6.2-15.2 32.5-26.9 59.7q-0.1 0.1-0.1 0.2c-11.2 25.4-25.1 56.2-28.7 63.3q-0.2 0.2-0.3 0.5c-4.9 8.9-14.4 21.7-19.2 27.9-3.8 4.8-8 9.5-11.1 12.9-8.5 10.5-18.1 20.1-28.7 28.6-39.9 32.4-90.2 47.2-141.4 41.8-51.8-5.5-98.5-31-131.4-71.9-67.4-83.7-54.8-206.4 28-273.6 22.9-18.5 48.9-31.2 77.3-37.8q3.1-1.1 5.6-1.9 0.3-0.1 0.7-0.2c7.5-2 40.3-9.1 67.7-14.8q0.1 0 0.2 0c28.9-5.8 57.1-12.2 63.8-13.9 4.9-1.6 14.2-5.3 20.1-8.2q0-0.1 0.1-0.1c1.6-0.8 3.5-1.6 6.2-2.8 5.9-2.6 33-18.9 58.7-36.4-0.7-2.7-1.1-5.5-1.1-8.3 0.2-8.1 0.4-16.1 0.8-24-11.4 2.2-23.5-3-29.5-13.7-4.2-7.3-8.1-14.8-11.9-22l-0.3-0.5q-0.1-0.2-0.2-0.4c-1.9-3.7-4-7.6-6-11.4q-0.4-0.8-0.8-1.5c-1.7-3.9-3.5-7.7-5.5-11.7l-0.1-0.3c-3.6-7.6-7.3-15.4-10.8-23.6-4.9-11.4-1.6-24.4 7.5-32.2-6.5-4.4-13.2-9-20-13.9-5-3.5-8.7-8.6-10.5-14.4l-0.1-0.4c-3.8-12-7.7-24.5-11.2-37.1q-0.2-0.5-0.3-1.1c-1-4-2-8-3.1-12.2l-0.1-0.4c-2.1-8.3-4.3-16.8-6.1-25.8-1-5.4-0.4-11 1.7-16.1 3.1-7.4 6.4-14.6 9.6-21.6l0.3-0.6c-11.9-2.3-21.3-12.2-22.5-24.8q-0.6-6.2-1.3-12.3c-0.9-8.7-1.8-17.7-2.4-26.8q-0.1-0.3-0.1-0.7c-0.1-4.2-0.4-8.6-0.6-12.5q0-0.1 0-0.2c-0.5-8.7-1-17.6-1-26.9 0-12.4 8.1-22.9 19.4-26.6-4.5-6.8-9.2-14.1-13.6-21.3-3.1-5.2-4.5-11.2-3.9-17.2q0.5-5.4 1-10.9c0.8-9.3 1.6-18.8 2.9-28.5q0.1-0.2 0.1-0.4 0.8-5.3 1.5-10.5l0.1-0.4c1.2-9.2 2.5-18.8 4.6-28.5 1.1-5.6 3.9-10.7 8.1-14.6q8.8-8.4 17.3-16.2c-9.8-6.6-14.6-18.9-11.3-30.7 2.3-8.1 4.7-16 7.1-23.7l0.1-0.2c1.3-4.3 2.7-8.9 4-13.3q0.3-0.7 0.5-1.5c4.4-11.9 8.8-24.2 13.3-36.3 4.5-11.9 16.1-18.9 28.2-18.1-1.6-8.4-3-16.9-4.2-24.3-1-5.7-0.2-11.5 2.3-16.7 4.2-8.9 8.8-17.2 13.2-25.2l0.1-0.2q2.7-4.8 5.3-9.7 0.2-0.2 0.3-0.4c4.4-7.9 9.1-15.6 13.6-22.9 0.1-0.1 0.1-0.1 0.1-0.1l0.1-0.2q3.2-5.2 6.4-10.4c2.1-3.5 4.9-6.5 8.2-8.7-9.4-8.8-17-15.9-18.1-16.9-6.8-6.6-18.3-15.4-24.5-19.5-5.9-3.5-18-8.8-25.2-11-6.4-1.9-41.2-8.2-83.4-14.1-27.4-4-77.7-11.9-93.3-16.7q-0.1 0-0.2-0.1c-12.3-3.9-30.6-12-42.6-19-11.8-6.8-30.2-20.5-42.8-31.9q-0.1-0.1-0.2-0.2c-16.5-15.3-26.6-27.7-38.5-47.5-8-13.3-18.9-35.1-23.7-49.8-2-6.1-3.6-11.5-4.8-15.5-0.7-2.5-1.2-4.5-1.6-6.1-4.6-20.3 9.6-30.1 12.5-31.9 12.6-7.7 23.6-2.9 30.8 0.2 3.3 1.5 7.9 3.5 13.6 6.1 11.3 5.1 26.6 12.2 43.1 19.9 34.3 16 61.6 27.1 67.7 28.7 4.8 0.9 8.2 0.9 9.4 0.7 2.6-0.9 7-2.9 8.8-4.1 1.8-1.1 5.4-4.4 6.6-5.8q0.3-0.5 0.7-0.9c2.1-3.1 8.9-15.6 16.6-31.6 8.9-18.8 15.1-33.1 16.1-36.2 0.1-0.3 0.2-0.6 0.4-1 0.9-2.7 2.4-9.5 2.7-13.7 0.2-3.4-0.4-7.2-1.6-10.4-0.6-1.7-3-5.1-6.4-7.9q-0.2-0.1-0.4-0.3c-2.9-2.4-16.9-10.7-32.1-17.5q-0.2-0.1-0.4-0.1c-14.8-6.9-34.5-15.8-43.1-19.6l-6.2-2.7q-0.1-0.1-0.1-0.1h-0.1c-8.1-3.6-19.1-8.5-34.5-15.2-10.1-4.4-16.7-14.4-16.8-25.5 0-11.1 6.5-21.2 16.6-25.7l17.8-8q0.1 0 0.1 0c10.2-4.5 27.7-11.4 28.5-11.7q2.8-1.1 5.7-1.6c1.1-0.2 26.7-4.3 46.8-5.5q0.1 0 0.3 0c17.6-0.9 41.6-1.5 55.7 1.1 10.1 1.9 26.9 6.8 39.2 11.6 16.2 6.2 29.6 14.3 43.7 26.5 14.1 11.7 24.4 23.8 34.2 40.6q0.1 0 0.1 0.1c8.8 15.2 16.6 34 25.4 61.1q0.1 0.2 0.1 0.4c5.7 18.2 15.1 44.2 20.1 55.7q0.1 0.2 0.2 0.4c4.9 11.6 14.2 30.2 20.3 40.6q0.1 0.2 0.3 0.4c5.8 10.4 16.3 26 22.4 33.5 6 7.4 23 24.3 36.7 35.9q0.1 0.1 0.3 0.2c2.2 1.9 11.8 8.9 22.1 16.4q1.4-1.7 3-3.2c6.7-6 13.5-11.4 20.1-16.7 3.7-2.9 7-5.6 10.4-8.4q0.4-0.3 0.9-0.7c10.3-7.8 21-15.5 31.3-22.9l0.2-0.1c4.9-3.6 10.8-5.4 16.8-5.3 8.1 0.2 16 0.4 23.9 0.8-2.3-11.4 2.9-23.5 13.5-29.6 7.5-4.3 15.1-8.3 22.5-12.2 3.7-1.9 7.8-4.1 11.8-6.2q0.7-0.4 1.5-0.8c3.9-1.8 7.8-3.7 11.9-5.6 7.6-3.7 15.4-7.4 23.6-10.9 11.4-4.9 24.3-1.6 32.1 7.4 4.4-6.5 9-13.2 13.8-19.9 2.6-3.8 6.2-6.8 10.3-8.9q2-1 4.1-1.7c12.2-3.8 24.7-7.7 37.4-11.3q0.5-0.2 1.1-0.3c4.1-1 8.4-2.1 12.6-3.2 8.2-2.2 16.8-4.4 25.6-6.1 5.5-1.1 11.2-0.5 16.3 1.7 7.5 3.2 14.8 6.5 21.8 9.8h0.2c2.3-11.8 12.1-21.3 24.8-22.5q6-0.6 12-1.2c0 0 0.1 0 0.2 0 8.7-1 17.6-1.9 26.7-2.5q0.4 0 0.7-0.1c4.1-0.1 8.1-0.3 12.4-0.6h0.1c8.7-0.5 17.7-0.9 27-0.9 12.3 0 22.9 8 26.6 19.2 6.5-4.2 13.7-8.9 21.1-13.4 5.1-3.2 11.2-4.6 17.2-4q5.4 0.5 10.7 1h0.2c9.2 0.8 18.7 1.7 28.4 3q0.2 0 0.4 0c3.6 0.6 7.3 1.1 10.9 1.6 9.2 1.3 18.7 2.6 28.4 4.6 5.6 1.2 10.7 4 14.6 8.2 5.6 5.8 10.9 11.6 16 17.2 6.6-9.7 18.9-14.5 30.8-11.2 12.6 3.6 25 7.5 37 11.3l0.4 0.1q0.5 0.2 1.1 0.4c11.8 4.3 24 8.7 36.2 13.3 11.9 4.5 18.9 16.2 18.1 28.2 7.5-1.4 15.2-2.7 24.1-4.2 5.7-0.9 11.5-0.1 16.7 2.4 8.9 4.2 17.2 8.8 25.2 13.2 3.5 2 6.6 3.7 9.8 5.5q0.3 0.1 0.5 0.2c8 4.5 15.8 9.4 22.8 13.7h0.1l0.2 0.2q5.2 3.2 10.4 6.4c5.3 3.2 9.3 8 11.6 13.8 3 7.6 5.7 15.1 8.3 22.4v0.1c9.6-6.4 22.4-6.4 32.1 0.7 7.9 5.8 15 11.8 21.8 17.6q0.2 0.2 0.4 0.4l0.2 0.2c2.9 2.5 5.7 4.8 8.5 7.1q0.2 0.2 0.4 0.4 0.8 0.6 1.5 1.3c8-5.9 11.3-8.4 12.5-9.5q0.1 0 0.2-0.1c13.6-12.5 30.2-30.7 36.1-38.5 5.9-8 16-24.6 21.5-35.5q0.1-0.2 0.2-0.4c5.8-11 14.5-30.5 19-42.6q0.1-0.3 0.2-0.5c4.7-12 13.2-39.1 18.1-58.1q0.1-0.2 0.1-0.3c7.8-28.1 14.9-47.8 23.2-63.7q0.1-0.1 0.1-0.1c9.3-17.5 19.2-30.4 33.1-43 13.8-13 27.2-22 43.4-29 12.2-5.3 29.5-11.3 39.4-13.6 14.4-3.3 39-3.8 57.1-3.7q0.1 0 0.2 0c20.7 0.3 47.1 3.4 48.2 3.6q3 0.3 5.8 1.3c0.7 0.3 19 6.5 29.6 10.7 0.1 0 0.1 0 0.1 0l18.7 7.3c10.3 4.1 17.2 13.9 17.7 25 0.4 11.1-5.7 21.4-15.7 26.3-15.8 7.7-27.2 13.3-34.7 17.1q-0.2 0-0.3 0.1l-6.1 3c-7.8 3.9-27.1 13.7-43.3 22.1q-0.2 0-0.4 0.1c-15.4 7.7-29.4 16.9-32.3 19.5-0.1 0.1-0.3 0.2-0.4 0.4-3.6 3.2-5.8 6.9-6.4 8.6-1.1 3.4-1.5 7.5-1.2 11 0.5 4.4 2.4 11.4 3.5 14.2q0.2 0.5 0.4 1c1.1 3.1 8.1 17.5 18.2 36.4 8.6 16.2 16.2 28.7 18.5 31.8q0.4 0.4 0.8 0.9c1.2 1.4 5.1 4.6 7.1 5.8 2 1.2 6.7 3.1 9.5 3.9 1.3 0.1 4.9 0.1 10-1.2 6.1-1.9 33.7-14.4 68.2-32.5 16.6-8.6 32-16.6 43.2-22.3 5.9-3 10.4-5.3 13.7-6.9 7.2-3.5 18.1-8.8 31-1.6zm-1712.6 1407.4c-0.4-6.7 1.2-13.3 4.5-19.1l2.9-5-2.9-5.2c-3.1-5.9-4.6-12.5-4.1-19.1l0.4-5.9-4.8-3.5c-5.5-3.9-9.6-9.2-12-15.4l-2.2-5.5-5.8-1c-6.5-1.2-12.6-4.2-17.5-8.8l-4.3-3.9-5.5 1.6c-6.4 1.7-13.1 1.7-19.5-0.2 0-0.1-0.1-0.1-0.1-0.1l-5.5-1.7-4.3 3.8c-4.9 4.4-11 7.3-17.6 8.3l-0.2 0.1-5.6 0.8-2.2 5.3c-2.6 6.2-6.8 11.4-12.3 15.2l-4.8 3.3 0.3 5.9c0.3 6.7-1.3 13.3-4.6 19l-2.9 5.1 2.9 5.2c3.1 5.9 4.6 12.5 4.1 19.1l-0.4 5.9 4.8 3.5c5.4 3.9 9.6 9.2 12 15.4l2.2 5.5 5.8 1q0 0.1 0.1 0.1c6.5 1.2 12.5 4.2 17.3 8.6l4.4 4 5.5-1.5c3.1-0.9 6.2-1.3 9.4-1.3 3.5 0 6.9 0.5 10.3 1.5l5.4 1.7 4.3-3.8c5-4.4 11.2-7.3 17.8-8.3l5.6-0.9 2.2-5.3c2.6-6.2 6.9-11.4 12.3-15.2l4.8-3.3-0.3-5.9zm1444.4-41.5c0.3 6.7-1.4 13.2-4.7 19l-3 5.1 2.7 5.2c3.2 5.9 4.5 12.5 4 19.2l-0.5 5.7 4.6 3.5c5.4 3.9 9.5 9.3 11.9 15.6l2.1 5.3 5.6 1.1c6.6 1.2 12.6 4.3 17.5 8.8l4.2 4 5.5-1.5c3-0.8 6.1-1.3 9.2-1.3 3.5 0 7 0.6 10.4 1.6l5.5 1.8 4.4-3.8c5.1-4.4 11.2-7.3 17.9-8.2l5.7-0.9 2.3-5.4c2.7-6.1 7-11.3 12.5-15l4.9-3.3-0.2-6c-0.3-6.6 1.4-13.2 4.8-19l2.9-5-2.7-5.2q0-0.1-0.1-0.1c-3-5.8-4.3-12.4-3.9-18.9q0.1-0.1 0.1-0.2l0.4-5.8-4.6-3.5c-5.4-3.9-9.5-9.3-11.9-15.6l-2-5.3-5.7-1.1c-6.5-1.2-12.5-4.2-17.4-8.8l-4.2-4-5.6 1.5q0 0.1-0.1 0.1c-6.4 1.7-13.1 1.5-19.4-0.4h-0.1l-5.5-1.8-4.3 3.8c-5 4.4-11.2 7.3-17.9 8.2l-5.7 0.9-2.4 5.4c-2.7 6.2-7 11.4-12.5 15.1l-4.9 3.3 0.3 5.9z"/>
	<path id="Layer" fill-rule="evenodd" class="s2" d="m1613.6 1420.6c25.9 23 53.1 35.9 65.3 41.7 2.3 1 4 1.9 5.1 2.5 7.3 3.9 18.4 8.7 24.4 10.7 6.2 1.9 35.6 9.5 65.6 16.5 30 7.2 59.5 14.6 65.5 16.5 1.6 0.5 3.5 1.2 5.6 2.1 23.9 6.1 46.7 17.6 66.6 34.8 69.2 59.7 76.6 164.9 16.6 234.9-60.1 70-164.9 78.4-234.1 18.6-9.2-7.9-17.3-16.6-24.3-26-3.7-4.1-7.2-8.4-9.9-12.1-5.8-7.9-12.9-18.7-15.9-24.5-2.7-5.7-14.4-33.9-26-62.6-11.4-28.7-23.3-56.7-26-62.6-3-5.6-9.3-15.9-14.3-22.5-0.7-1.1-1.8-2.7-3.2-4.7-8.3-12.5-27.8-41.5-59.2-65.3l-1.7-1.5c36.3-28.8 69.8-61.2 99.9-96.5zm137.9 97.4c-1.9-1.7-11.4 3.2-21.7 11.3-9.9 7.6-29.4 26.5-43 42.3-13.5 15.8-29.6 37.6-36 49-6.5 10.6-9.6 20.5-7.7 21.4 2.1 0.6 28.4-26.1 58.1-59.9 29.7-33.8 52.2-62.5 50.3-64.1zm109.9 235.1c2.4-0.4 4.4-2 5.3-4.2l7.1-16.1c0.5-1.2 1.4-2.3 2.4-3l14.6-9.9c2-1.3 3.2-3.6 3.1-6l-0.7-17.6c0-1.3 0.3-2.6 1-3.8l8.8-15.2c1.2-2.1 1.3-4.6 0.2-6.7l-8.2-15.6c-0.6-1.2-0.9-2.5-0.8-3.8l1.4-17.5c0.2-2.4-0.8-4.7-2.7-6.2l-14.2-10.4c-1-0.8-1.8-1.8-2.3-3.1l-6.3-16.4c-0.8-2.2-2.8-3.8-5.2-4.3l-17.2-3.2c-1.3-0.2-2.5-0.8-3.4-1.7l-12.8-12.1c-1.8-1.6-4.2-2.2-6.5-1.6l-17 4.6q-1.9 0.6-3.9 0l-16.7-5.3c-2.3-0.7-4.8-0.2-6.6 1.4l-13.3 11.5c-1 0.9-2.2 1.5-3.5 1.7l-17.4 2.5c-2.3 0.4-4.4 1.9-5.3 4.1l-7 16.2c-0.6 1.2-1.4 2.2-2.5 3l-14.6 9.9c-2 1.3-3.1 3.6-3 6l0.6 17.6c0.1 1.3-0.3 2.6-0.9 3.7l-8.9 15.3c-1.2 2-1.3 4.6-0.2 6.7l8.2 15.6c0.7 1.1 0.9 2.4 0.8 3.8l-1.4 17.5c-0.2 2.4 0.8 4.7 2.8 6.1l14.1 10.4c1 0.8 1.8 1.9 2.3 3.1l6.3 16.4c0.9 2.3 2.8 3.9 5.2 4.3l17.2 3.3c1.3 0.2 2.5 0.8 3.5 1.7l12.7 12c1.8 1.7 4.3 2.3 6.6 1.7l16.9-4.7c1.3-0.3 2.6-0.3 3.9 0.1l16.7 5.3c2.3 0.7 4.8 0.1 6.6-1.4l13.3-11.6c1-0.8 2.2-1.4 3.5-1.6z"/>
	<path id="Layer" fill-rule="evenodd" class="s2" d="m531.8 1517.3l-1.8 1.5c-32.1 22.8-52.5 51.2-61.2 63.4-1.4 2-2.6 3.5-3.4 4.6-5.1 6.5-11.8 16.5-14.9 22.1-2.9 5.8-15.7 33.4-27.9 61.7-12.5 28.3-25.1 56.2-28 61.7-3.1 5.8-10.6 16.4-16.6 24.1-2.8 3.5-6.5 7.7-10.3 11.8-7.3 9.1-15.7 17.6-25.1 25.2-71 57.6-175.5 46-233.4-25.9-57.8-71.8-47.2-176.7 23.9-234.2 20.4-16.6 43.6-27.4 67.6-32.8 2.2-0.8 4.1-1.4 5.7-1.9 6-1.7 35.8-8.2 66-14.4 30.2-6.1 59.8-12.8 66-14.5 6.1-1.9 17.3-6.3 24.7-10 1.2-0.5 3-1.3 5.2-2.3 12.5-5.4 40-17.5 66.6-39.6 29 36.2 61.5 69.6 96.9 99.5zm-189.4 59.2c28.6 34.7 54 62.2 56.2 61.7 1.8-0.9-1-10.9-7.1-21.7-6.1-11.6-21.4-33.9-34.5-50.1-13-16.2-31.9-35.6-41.6-43.6-10-8.4-19.4-13.6-21.4-12-1.9 1.6 19.8 30.9 48.4 65.7zm-148.2 169c1.3 0.2 2.5 0.8 3.5 1.7l12.9 11.9c1.8 1.7 4.2 2.3 6.6 1.6l16.8-4.7c1.3-0.4 2.6-0.3 3.9 0l16.8 5.2c2.3 0.7 4.8 0.1 6.6-1.4l13.1-11.6c1-0.9 2.2-1.5 3.5-1.7l17.4-2.7c2.3-0.3 4.3-1.9 5.2-4.1l6.8-16.2c0.6-1.2 1.4-2.3 2.5-3l14.4-10c2-1.3 3.1-3.6 3-6l-0.9-17.6c-0.1-1.4 0.2-2.7 0.9-3.8l8.7-15.3c1.1-2.1 1.2-4.6 0-6.7l-8.4-15.5c-0.6-1.2-0.9-2.5-0.8-3.8l1.2-17.6c0.2-2.4-0.9-4.7-2.9-6.1l-14.2-10.3c-1.1-0.8-1.9-1.8-2.4-3.1l-6.5-16.4c-0.9-2.2-2.9-3.8-5.2-4.2l-17.3-3.1c-1.3-0.3-2.5-0.9-3.5-1.8l-12.9-11.9c-1.8-1.6-4.3-2.2-6.6-1.6l-16.9 4.7c-1.2 0.4-2.6 0.4-3.8 0l-16.8-5.1c-2.3-0.8-4.8-0.2-6.6 1.4l-13.1 11.6c-1 0.9-2.2 1.4-3.5 1.6l-17.4 2.7c-2.3 0.4-4.3 1.9-5.3 4.2l-6.8 16.2q-0.7 1.8-2.4 3l-14.4 9.9c-2 1.4-3.1 3.7-3 6.1l0.9 17.6c0 1.3-0.3 2.6-0.9 3.7l-8.7 15.3c-1.2 2.1-1.2 4.7 0 6.8l8.4 15.5c0.6 1.1 0.9 2.4 0.8 3.8l-1.2 17.5c-0.2 2.4 0.9 4.7 2.8 6.1l14.3 10.4c1.1 0.7 1.9 1.8 2.4 3l6.5 16.4c0.9 2.2 2.9 3.8 5.2 4.3z"/>
	<path id="Layer" fill-rule="evenodd" class="s2" d="m1852.5 126.4c0 0 18.5 6.4 28.7 10.3l18.6 7.4c-15.6 7.6-26.8 13.1-34.9 17.2q-3.5 1.7-6.3 3.1c-8.5 4.2-28.3 14.3-43.8 22.2-15.5 7.7-33.1 18.7-38.8 24-6.8 6-12.2 13.9-14.5 20.9-2.3 7.2-3.1 15.3-2.4 22.7 0.7 6.3 3.1 16 5.4 21.7 2.1 5.7 11.2 23.7 19.9 40 8.6 16.3 18.6 33.2 22.2 37.1 3.3 4.2 10.2 9.8 14.9 12.5 4.7 2.7 12.6 5.8 17.3 7.1 5.5 1.2 13.9 0.8 22.8-1.4 7.6-1.7 41.3-17.5 74.6-34.9 33.2-17.4 60.8-31.4 61.3-31.1 0.5 0.2-1.9 10-5.2 21.8-3.2 11.7-12.1 32.4-19.5 46-10.1 18.5-18.1 29.3-32.5 43.9-10.8 10.7-27.5 24.5-37.6 30.9-10.1 6.4-26.9 14.8-37.4 18.7-10.7 3.8-50.7 12.6-90.3 20.1-39.2 7.2-79.4 16-89.1 19.4-9.8 3.4-24.4 10.6-32.2 15.8-7.8 5.5-20.9 16.6-28.8 24.9-2.5 2.7-5.1 5.2-7.4 7.4-29.9-34.2-57.9-71-93.8-99 4.9-4.1 4.1-3.7 11.2-10.5 15-13.8 32.6-33 39.6-42.4 6.9-9.3 17.7-27.1 24-39.5 6.6-12.4 15.7-33 20.6-45.9 5-13 13.7-40.7 19.1-61.2 7.1-25.8 13.6-44 21-58.1 7.6-14.4 15.6-24.9 27.4-35.6 11.3-10.7 22.2-18.1 35.5-23.8 10.6-4.7 26.2-10.1 34.6-12 9.4-2.2 28.6-3.2 50.6-3 19.4 0.3 45.2 3.3 45.2 3.3zm-191.3 169.3c-0.7-7.6-1.9-15-2.6-16-0.9-1.3-2.7-1.1-4.3 0.6-1.6 1.4-2.8 12-3 24.6 0 12.2 1.5 30.7 3.9 41.2 2.1 10.5 7.4 27.4 12.1 37.2 4.4 9.8 12.4 23.3 17.4 29.8 5.3 6.5 16 16.6 24.1 22.2 7.8 5.9 21.6 13.8 30.5 17.5 8.9 3.9 18.2 6.3 20.7 5.4 2.3-0.7 4.4-2.9 4.5-4.6 0.1-1.6-7.7-7.9-17.3-13.9-9.6-6-23.3-16.1-30.4-22.8-7-6.6-17.1-17.9-22.4-24.9-5.2-7.3-13.2-21.8-17.6-32.4-4.6-10.5-9.5-26.2-11.2-34.6-1.9-8.4-3.7-21.7-4.4-29.3z"/>
	<path id="Layer" class="s3" d="m1558.4 426.4c-7.4 7.9-15.8 16.5-23.5 23.6-2.6 2.5-4.1 4-5.3 5.1-2 2-2.8 2.8-5.9 5.4 28.3 22.1 51.7 49.6 75 77 6.2 7.4 12.5 14.7 18.8 22 2.3-2.2 4.8-4.7 7.4-7.4 7.9-8.3 21-19.4 28.8-24.9 7.8-5.2 22.4-12.5 32.2-15.9 9.7-3.4 49.9-12.1 89-19.3 39.7-7.5 79.7-16.3 90.4-20.1 10.5-3.9 27.3-12.3 37.4-18.7 10.1-6.5 26.8-20.2 37.5-30.9 11.5-11.6 19-20.8 26.6-33.4-46.5-4.7-108.5-2-180.8 22.7-21.7 7.4-42.5 12.9-62.2 16.7 7.2 5.8 16.4 12.4 23.4 16.8 9.5 5.9 17.4 12.3 17.3 13.8-0.1 1.8-2.2 4-4.5 4.7-2.5 0.9-11.8-1.5-20.7-5.4-8.9-3.7-22.7-11.6-30.5-17.5-3.2-2.2-6.8-5.1-10.3-8.2-59.7 8-108 1.7-140.1-6.1z"/>
	<path id="Layer" fill-rule="evenodd" class="s2" d="m220.5 138.7c21.4-1.1 40.1-1 49.4 0.7 8.3 1.6 23.7 6.2 34.2 10.2 13.2 5.1 24.1 11.8 35.6 21.7 11.9 9.9 20.1 19.8 28.2 33.5 7.8 13.4 14.9 30.8 22.9 55.6 6.2 19.8 15.8 46.4 21.3 58.8 5.2 12.4 15 32.1 21.9 43.8 6.7 11.8 18 28.7 25.2 37.5 7.1 8.7 25.2 26.7 40.3 39.5 7.2 6.3 12.7 11.2 16.6 14.9-33.7 28.8-64.7 60.7-92.3 95.2-2.3-2-4.9-4.3-7.5-6.8-8.1-7.7-21.3-18-29.1-23-7.8-4.8-22.4-11.2-32-14.1-9.6-2.9-49.2-9.6-87.6-15-38.9-5.6-78.2-12.4-88.8-15.7-10.4-3.3-27.1-10.8-37.2-16.6-10.1-5.8-26.9-18.5-37.9-28.4-14.7-13.6-23-23.8-33.6-41.4-7.7-12.9-17.3-32.6-21-44-3.6-11.3-6.4-20.7-5.9-21 0.4-0.2 27.9 12.3 61 27.7 33.1 15.5 66.6 29.5 74.1 30.8 8.8 1.7 16.9 1.8 22.2 0.3 4.6-1.3 12.2-4.7 16.6-7.6 4.5-2.8 10.9-8.6 14-12.8 3.4-4 12.3-20.8 20-37 7.8-16.3 15.9-34.3 17.6-39.9 2-5.6 3.9-15.1 4.4-21.3 0.3-7.2-0.8-15.1-3.4-22-2.5-6.7-8.1-14.1-14.9-19.7-5.9-5-23.5-14.9-38.9-21.7-15.4-7.1-35.1-16.1-43.6-19.8q-2.7-1.2-6.2-2.7c-8.1-3.6-19.2-8.5-34.7-15.3l17.8-7.9c9.7-4.3 27.4-11.3 27.4-11.3 0 0 25-4.1 43.9-5.2zm146.6 190.5c-1.2 8.3-5.4 23.7-9.4 34.2-3.8 10.5-10.9 24.9-15.7 32.2-4.8 7.1-14.2 18.6-20.8 25.3-6.6 6.7-19.5 17.2-28.5 23.5-9.1 6.2-16.4 12.7-16.3 14.2 0.1 1.7 2.3 3.8 4.5 4.3 2.6 0.8 11.4-1.9 19.9-6.1 8.6-4 21.7-12.3 29-18.3 7.7-5.9 17.6-16.1 22.5-22.7 4.6-6.6 11.8-20.1 15.7-29.8 4.1-9.7 8.6-26.4 10.2-36.7 1.8-10.3 2.5-28.4 2-40.3-0.8-12.3-2.4-22.5-4-23.9-1.6-1.5-3.3-1.6-4.2-0.3-0.7 1-1.5 8.3-1.9 15.7-0.3 7.5-1.5 20.4-3 28.7z"/>
	<path id="Layer" class="s3" d="m60.3 371c3.2 6.5 6.7 12.9 9.8 18.1 10.6 17.7 18.9 27.8 33.6 41.4 11 10 27.8 22.6 37.9 28.4 10.1 5.9 26.8 13.3 37.2 16.7 10.6 3.2 49.9 10 88.8 15.6 38.4 5.4 78 12.2 87.6 15.1 9.6 2.8 24.2 9.3 32 14 7.8 5.1 21 15.3 29.1 23 2.6 2.5 5.2 4.9 7.5 6.9 27.6-34.6 58.6-66.5 92.3-95.2-3.9-3.8-9.4-8.6-16.6-14.9q-2.8-2.4-5.8-5c-42.5 5.4-95.5 6.6-156.6-2.8-2.5 2.3-5 4.4-7.3 6.2-7.3 6.1-20.4 14.4-29 18.3-8.5 4.2-17.3 6.9-19.9 6.1-2.2-0.5-4.4-2.5-4.5-4.3-0.1-1.4 7.2-8 16.3-14.2 6.2-4.3 14.2-10.6 20.8-16.3-27.7-5.4-57-13-87.5-23.5-60.9-20.9-116.7-30.6-165.7-33.6z"/>
</svg>