<svg version="1.2" xmlns="http://www.w3.org/2000/svg" viewBox="0 0 2040 1960" width="2040" height="1960">
	<title>logo-korch-svg</title>
	<style>
		.s0 { fill: #232330 } 
		.s1 { fill: #f2ce23 } 
		.s2 { fill: #3a8ac5 } 
	</style>
	<path id="Layer" class="s0" d="m1019 1960c-541.9 0-980-438.1-980-980 0-541.9 438.1-980 980-980 541.9 0 980 438.1 980 980 0 541.9-438.1 980-980 980z"/>
	<path id="Layer" fill-rule="evenodd" class="s1" d="m1999 980c0 541.2-438.8 980-980 980-541.2 0-980-438.8-980-980 0-205.9 63.5-397 172-554.7 3.5-0.2 5.2-1.7 5.2-4.1 0-0.9-0.2-1.8-0.4-2.8 177.2-253 470.9-418.4 803.2-418.4 529.2 0 960.3 419.4 979.3 943.9-1 0-2.2 0.8-3.7 2.2-2.2 2-3.1 5.1-2.4 6.6 0.7 1.7 3.1 3.1 5.1 3.1q0.7 0 1.4-0.2 0.3 12.2 0.3 24.4zm-1013.8-883.4c3.6 3.1 9 4.8 15.3 5 5.3 0 10.8-1.4 12.3-3.1 1.4-1.7 3.4-5.6 4.3-8.5 1-4.1-0.5-7.5-5.3-12.8-3.9-4.6-9.9-8-15.2-8.7-7.5-1.2-9.2-0.7-13.8 6.1-3.1 4.3-4.8 9.6-4.1 12.3 0.7 2.6 3.6 7 6.5 9.7zm-557.6 130c0-2.7-1.7-4.4-4.3-4.4q-4.6 0-3.6 4.4c0.4 2.2 2.4 4.1 4.3 4.1 1.9 0 3.6-1.9 3.6-4.1zm132 8.9c-4.1 2.9-5.6 6.1-5.3 11.2q0.2 7 6.5 11.3c5.8 3.6 7 3.9 12.8 0.5 4.4-2.7 6.5-6 6.8-11.6 0.5-5.8-0.7-8.7-4.8-11.4-2.9-1.9-6.6-3.6-7.8-3.6-1.4 0-5.1 1.7-8.2 3.6zm686.6 71.3c1.7 0.3 4.6-1.4 6.1-3.6 2.4-2.9 2.4-4.3 0-7.2-1.5-2.2-4.4-3.9-6.1-3.7-1.6 0-3.6 1.5-4.3 3.2-1 1.4-0.7 4.8 0 7.2 0.7 2.2 2.9 4.1 4.3 4.1zm-924.4 10.2c-0.7 1.7-0.5 4.6 0.2 6.3 1 1.9 3.9 2.9 6.5 2.4 2.9-0.5 4.9-2.7 4.9-5.6 0-3.1-2-5-5.1-5.5-2.9-0.5-5.8 0.7-6.5 2.4zm105.8 35.8c2 0 4.4-1.5 5.1-2.9 0.7-1.7 0-4.4-1.9-6.1-2-1.9-4.6-2.1-6.8-0.9-2.2 1.4-2.9 3.6-1.9 6 1.2 2.2 3.6 3.9 5.5 3.9zm446.4-2.9c0.5 2.1 2.5 4.1 4.4 4.1 1.9 0 3.6-2 3.6-4.1 0-2.7-1.7-4.4-4.3-4.4q-4.6 0-3.7 4.4zm-149.8 55.6c1.7 1.7 5.8 3.1 9.2 3.1 3.4-0.2 8-1.4 10.4-3.1 2.4-1.7 5.5-7.5 6.7-12.8 1.5-5.4 3.2-12.9 3.9-17 0.7-4.6 0-7.9-2.2-8.9-1.7-1-7.7-1.9-13.3-1.9-7.2 0-10.8 1.2-12.5 4.3-1.2 2.2-2.9 10.6-3.9 18.6-1 10.7-0.7 15.5 1.7 17.7zm-340.1-33.6c-4.1 0.9-9.6 3.1-12.8 4.6-2.9 1.7-6.3 4.8-7.5 7.2-0.9 2.2-2.6 9-3.6 15-1.2 8.9-0.5 12.6 4.6 21.3 3.4 5.5 8.5 11.8 11.4 13.7 3.3 2.2 10.8 3.7 18.8 3.7 7.3 0 16-1.5 19.3-3.2 3.2-1.4 7.5-5.8 9.7-9.4 3.4-6.3 3.2-8.5-1.9-27.8-3.2-11.8-7-22.7-8.5-24.4-1.7-1.7-7.2-2.9-12.5-2.7-5.4 0-13.1 1-17 2zm158.3 55.8q-2.4 4.8 0 13.3c1.3 4.6 4.9 10.1 7.8 12.1 3.1 1.9 10.1 3.6 15.7 3.6 8.2 0 12.1-1.7 19.1-7.7 4.6-4.4 9.6-11.9 11.1-16.5 2.2-7 1.9-9.6-1.2-15-2.7-4.5-8-7.9-15.7-10.3-6.3-2-15.7-3.7-21.3-3.7-5.3 0-10.6 0.8-11.8 1.7-1.2 0.7-2 5.1-1.7 9.7 0.2 4.3-0.7 10.1-2 12.8zm-58 35.8q0 5.3 7.3 8.9c3.9 2 8.9 3.6 10.9 3.6 1.9 0 5.8-2.4 8.4-5.3 2.7-3.1 4.9-8.4 4.9-12.1 0-4.3-2-8.2-5.6-10.4-2.9-1.9-6.5-3.6-7.7-3.6-1.5 0-4.6 1.5-7.3 2.9-2.6 1.5-6.3 4.4-8 6.5-1.7 2.2-2.9 6.3-2.9 9.5zm-240.4 16.2c1.9-0.8 3.6-3.4 3.6-6.1 0-2.6-2.2-6-4.9-7.2-2.6-1.2-5.3-2.4-5.8-2.4-0.4 0-2.4 1.6-4.1 3.8-2.9 3.4-2.6 4.6 2 8.5 3.1 2.6 7.2 4.1 9.2 3.4zm1142.2-8.5c-3.4 1.2-5.8 3.2-5.8 4.1 0.2 1 0 4.1-0.5 6.8-0.5 2.6 0.3 8.4 1.4 12.8 2 6.5 3.4 7.7 9.7 7.7 5.1 0 9.7-2.4 14.5-7.2 3.9-3.9 7-9.4 7-12.1 0-2.7-1.2-7-2.4-9.7-1.7-3.4-4.8-4.8-10.4-4.6-4.1 0-10.4 1-13.5 2.2zm-238.3 52.7c1.9-1.2 3.6-3.4 3.6-5.3-0.2-1.9-1.7-3.9-3.6-4.6-1.9-0.7-4.8 0.2-6.6 2.2-2.4 2.9-2.4 4.1-0.2 6.5 1.7 1.7 4.6 2.2 6.8 1.2zm-670 8.9c-1.2 2.5-0.5 5.1 1.7 7.5 2.4 2.2 5.3 2.9 8 1.7 2.6-1.2 4.1-3.8 3.6-6.7-0.5-2.9-2.9-5.1-6-5.6-3.2-0.5-6.1 0.7-7.3 3.1zm454.9 12.9c1.9-1.3 3.6-3.4 3.6-5.4-0.2-1.9-1.7-3.8-3.6-4.6-2-0.7-4.9 0.3-6.6 2.2-2.4 2.9-2.4 4.1-0.2 6.5 1.7 1.7 4.6 2.2 6.8 1.3zm826.6-2.7c-1.2 0.7-2 3.6-1.7 6 0.2 2.5 2.1 4.9 4.1 5.6 1.9 0.7 4.8-0.5 6-2.4 1.2-2 2-5.3 1.2-7.3-0.7-1.9-2.6-3.6-4.3-3.6-2 0-4.1 0.7-5.3 1.7zm-1067.1 17.6q0 4.9 4.8 4.9 4.9 0 4.9-4.9 0-4.8-4.9-4.8-4.8 0-4.8 4.8zm137.8 26.1c3.3 0.5 6.7-0.7 7.7-2.4 1-1.7 1.9-4.3 1.9-6 0.3-1.7-1.9-4.1-4.3-5.3-3.4-1.7-6.1-1.7-9 0.5-2.1 1.6-3.6 5-3.1 7.7 0.5 3.1 2.9 5.1 6.8 5.5zm533.9-2.6c-1.7 0.7-2.9 3.1-2.7 5.8 0.2 3.1 2.4 4.6 6.5 4.6 4.4 0 6.1-1.2 6.1-4.6-0.3-2.4-1.7-5.1-3.4-5.6-1.7-0.7-4.6-0.7-6.5-0.2zm-115.6 18.8c1.5-1.2 2-3.8 1.2-5.3-0.7-1.7-2.9-3.1-4.8-3.1-1.9 0-4.1 1.7-4.8 3.6-0.8 1.9 0.2 4.4 2.1 5.6 2.2 0.9 5.1 0.4 6.3-0.8zm-943.1 11.6c-4.8 2.9-10.8 7.3-13.2 9.5-2.7 2.1-6.1 7.7-7.8 12.5-2.9 8.5-2.6 9.2 7.3 21.5 5.5 6.8 13.5 16.2 17.6 20.6 4.4 4.8 9.7 7.7 13.3 7.7 3.4 0.3 10.6-3.1 16.2-7.2 5.8-3.9 12.1-9.7 14.3-12.6 2.1-3.1 3.1-8.2 2.6-11.6-0.7-3.4-4.1-8-7.5-10.1-3.6-2.7-7.2-8.3-8.4-13.3-1.5-5.1-4.6-12.1-7.3-15.7-3.6-4.9-7-6.8-11.8-6.6-3.7 0-10.4 2.7-15.3 5.3zm1110.9 28.3c0-1.9-1.7-3.8-4.1-4.3q-3.9-0.8-4.2 4.1c-0.2 3.6 1 4.8 3.9 4.3 2.4-0.2 4.4-2.1 4.4-4.1zm-1000.4 5.6c-0.5 1.4 0.2 4.3 1.7 6 1.7 1.7 4.3 2.9 5.8 2.9 1.7 0 3.4-1.7 3.9-3.8 0.2-2.2 0.2-4.9 0-6.1-0.5-1.2-2.9-2.2-5.4-2.2-2.6 0-5.3 1.5-6 3.2zm35.3 26.8c3.1-0.7 7-2.6 8.7-4.3 1.9-1.5 2.6-4.9 1.9-8-0.9-3.4-4.3-6.5-8.9-8-6.8-1.9-7.5-1.7-9.7 4.4-1.7 4.3-1.7 8.2 0 12 1.9 3.9 4.1 5.1 8 3.9zm756-12.3c4.8 1.7 10.6 4.6 12.8 6.5 2.4 1.9 6.1 9.7 8 16.9 2.2 7.3 7 22.5 10.9 33.9 4.5 13.3 6.5 17.1 5.5 10.8-0.7-5.3-3.4-14.5-6-20.5-2.7-6-4.6-12.3-4.6-13.8 0-1.7-2.2-9.2-4.9-16.4-3.6-9.9-6.7-14.3-12-16.9-4.1-2-9.7-3.7-12.8-3.7-3.9 0.3-3.2 1 3.1 3.2zm-832.6 42.3c1.9-1.2 3.4-3.9 2.9-6.1-0.3-2.4-2.4-4.6-4.6-5-2.2-0.5-4.9 0.9-6.1 3.1-1.2 2.2-0.7 5.1 1 6.8 1.7 1.7 4.6 2.2 6.8 1.2zm-46 30c-0.9 1.6 0 4.8 2 6.7 2.4 2.2 5.3 2.9 7.7 2 1.9-1.3 3.4-3.9 2.9-6.1-0.2-2.4-2.9-4.6-5.5-5.1-2.9-0.4-6.1 0.8-7.1 2.5zm1529.3 31.1c2.9-8.4 2.7-9.2-7.2-21.5-5.6-6.8-13.6-16.2-17.7-20.5-4.3-4.9-9.7-7.8-13.3-7.8-3.4-0.2-10.6 3.2-16.2 7.3-5.8 3.8-12.1 9.6-14.2 12.5-2.2 3.2-3.2 8.3-2.7 11.6 0.7 3.4 4.1 8 7.5 10.2 3.6 2.7 7.3 8.2 8.5 13.3 1.4 5.1 4.6 12.1 7.2 15.7 3.6 4.8 7 6.8 11.9 6.5 3.6 0 10.3-2.6 15.2-5.3 4.8-2.9 10.9-7.2 13.3-9.4 2.6-2.2 6-7.7 7.7-12.6zm-142.4 34.8c-1 2.2-1 4.9 0.5 6.3 1.2 1.5 4.6 2.2 7.2 1.7 2.9-0.5 4.8-2.6 4.8-5.5 0-3.2-1.9-5.1-5.3-5.6-3.1-0.5-6 0.7-7.2 3.1zm114.5 81.5q11.6 11.6 17.7 11.6c3.4 0 8-1.4 10.1-3.1 2.4-1.7 4.1-5.4 4.4-8.3 0-3.1-1.5-8.4-3.4-12-1.7-3.9-4.8-8-6.5-9.7-2-1.5-7.3-3.4-11.9-4.1-5-1-10.6-0.3-14.2 1.7-3.2 1.7-6.3 5.3-6.8 7.7-0.7 3.4 2.7 8.5 10.6 16.2zm-247.7-10.6c0.5 3.6 1.7 6.2 3.1 6 1.3-0.2 4.6-1.2 7.3-2.4 3.9-1.5 4.3-1.2 2.4 1.7-1.7 2.6-1.7 3.1 0.7 1.9 1.5-1.2 2.9-3.6 2.9-5.5 0-2.9-1.7-3.2-7.5-1.7-6.2 1.4-7.2 0.9-6.2-2.5 0.4-2.4 0-4.3-1.2-4.3-1.3 0-2 2.9-1.5 6.8zm194.1 23.2c2.6-1 5.3-2 6-2.4 0.8-0.5-0.5-2.7-2.4-4.6-1.9-2.2-5.6-3.9-8-3.7-2.4 0-5 1.7-6 3.9-1 2.4-0.3 4.6 1.9 6 2 1.3 5.8 1.5 8.5 0.8zm132.9 9.9c-0.7 1.9-0.7 4.8 0 6 0.7 1.2 2.9 2.4 4.8 2.4 2 0 4.2-1.2 4.9-2.4 0.7-1.2-0.3-4.1-2-6-1.4-2.2-3.6-3.9-4.8-3.6-1 0-2.4 1.6-2.9 3.6zm-17.6 20c4.1-0.4 5.5-2.1 5.5-6.7 0-4.4-1.4-6.3-5.3-6.8-2.9-0.5-6 0.7-7 2.4-0.7 1.7-0.7 5.1 0 7.5 1 2.4 3.4 3.9 6.8 3.6zm-11.6 7.3c-1.5 1-3.9 4.8-5.6 8.5-1.9 5-1.9 6.7 0.3 7.2 1.6 0.5 6-0.7 9.6-2.4 3.9-1.7 6.8-4.6 6.8-6.1 0-1.6-1.2-4.6-2.9-6.2-1.7-1.7-3.6-2.9-4.4-2.9-0.7 0-2.4 0.9-3.8 1.9zm-869.9 46.4c-10.9 0-15.9 0.7-14.5 2.2 1.2 1.4 9.2 3.6 17.4 4.8 10.4 1.9 17.7 1.9 22.5 0.3 3.9-1.3 6.8-3.2 6-4.2-0.4-1.2 0.5-4.8 2.5-8.4 1.9-3.9 3.1-8.2 2.9-9.7-0.5-1.7-2.7 0.3-4.6 4.1-2 3.9-6.3 8-9.5 9-3.1 0.9-13.5 1.9-22.7 1.9zm62.9 43.5c-0.8 1.2-8 6.8-16.5 12.1-11.6 7.5-17.4 9.7-25.4 9.7-5.5 0-10.1 1.2-10.1 2.4 0 1.2 2.2 3.6 4.8 4.8 2.7 1.2 7.3 2.4 10.2 2.4 3.1 0 10.6-2.4 16.9-5.3 6.3-3.1 11.4-6.8 11.4-8 0-1.2 3.3-5.8 7.5-9.6 4.1-3.9 7.2-8 7.2-9 0-1.2-1-1.9-2.4-1.9-1.2 0-2.7 1.2-3.6 2.4zm-639.3 39.9c0.7-0.5-1.7-6-5.6-12.1-3.6-6-7.5-11.6-8.7-12.3-1.2-0.8-2.2-0.8-2.4 0-0.2 0.7 3.4 7 7.5 13.5 4.3 6.8 8.5 11.6 9.2 10.9zm517.2-18.9c-1.9 0.8-3.1 2.5-2.9 3.9 0.2 1.7 3.9 4.1 8.2 5.8 4.4 1.7 12.8 7 18.9 12.1 6 5.3 19.5 13.5 30.2 18.6 14.7 7.3 23.4 9.7 36.7 10.9 9.7 0.7 17.7 0.7 17.7-0.3 0-1.2-2.4-2.4-5.6-3.1-2.9-0.5-22.7-10.4-44-21.5-21.3-11.4-42.5-22-47.1-23.9-4.8-2-10.2-3-12.1-2.5zm22.2 76.9c1.2 4.8 5.1 10.9 9.2 14.5 3.9 3.4 9.2 6.1 11.4 6.1 2.4 0 14.5 6.5 26.6 14.5 12.3 7.9 22.9 16.1 23.7 18.1 0.7 1.9 3.8 3.6 7.2 3.6 3.4 0 9.7-2.2 13.8-4.8 7.7-4.6 7.7-4.9 1.9-4.9-3.4 0-13.5-4.6-22.5-10.1-8.9-5.8-25.8-17.4-37.4-26.1-11.6-8.7-24.9-18.1-29.5-21.1-4.6-2.8-9.2-5.5-10.4-5.5-1 0-1.7 1.2-1.7 2.4 0 1.2 1.5 2.9 2.9 3.6 1.7 0.5 3.9 4.9 4.8 9.7zm-621.6 71.8c-1.9 1.7-3.1 3.9-2.9 4.8 0.2 1 2.4 1.5 4.6 0.7 2.4-0.7 14.7 2 27.3 6.1 12.6 3.9 24.4 7.2 25.9 7.2 1.7 0 3.1-1.6 3.1-3.6 0-1.9-4.6-5.5-10.4-8.2-5.5-2.4-16.2-5.3-23.4-6.3-7.3-0.7-15-1.9-17.2-2.7-1.9-0.4-5.3 0.3-7 2zm45.9 45.7c8.7 2.6 18.4 4.6 21.8 4.1 5.3-0.7 4.8-1.5-6.1-7.3-6.7-3.3-21.2-8.7-32.6-11.3-11.3-2.9-21.3-5.1-22.5-5.1-0.9 0-1.7 2.2-1.7 4.8 0 3.9 2.5 5.3 12.6 7.5 7 1.2 19.8 4.6 28.5 7.3zm779.3-941.8c0-1.2-1.4-2.9-2.9-3.6-1.7-0.5-3.8-4.8-4.8-9.6-1.2-4.9-5.1-10.9-9.2-14.5-3.9-3.4-9.2-6.1-11.4-6.1-2.4 0-14.5-6.5-26.6-14.5-12.3-8-22.9-16.2-23.6-18.1-0.8-2-3.9-3.6-7.3-3.6-3.4 0-9.6 2.1-13.8 4.8-7.7 4.6-7.7 4.8-1.9 4.8 3.4 0 13.5 4.6 22.5 10.2 8.9 5.8 25.8 17.4 37.4 26.1 11.7 8.7 24.9 18.1 29.5 21 4.6 2.9 9.2 5.6 10.4 5.6 1 0 1.7-1.2 1.7-2.5zm9.2 54c-4.4-1.7-12.8-7.1-18.9-12.1-6-5.4-19.5-13.6-30.2-18.6-14.7-7.3-23.4-9.7-36.7-10.9-9.7-0.8-17.6-0.8-17.6 0.2 0 1.2 2.4 2.4 5.5 3.2 2.9 0.4 22.7 10.4 44 21.5 21.3 11.3 42.5 22 47.1 23.9 4.9 1.9 10.2 2.9 12.1 2.4 2-0.7 3.2-2.4 2.9-3.8-0.2-1.7-3.8-4.2-8.2-5.8zm539.2 15.2c0.3-0.7-3.4-7-7.5-13.6-4.3-6.7-8.4-11.6-9.2-10.8-0.7 0.4 1.7 6 5.6 12 3.6 6.1 7.5 11.7 8.7 12.4 1.2 0.7 2.2 0.7 2.4 0zm-614.1-6.3c5.5 0 10.1-1.2 10.1-2.4 0-1.2-2.1-3.7-4.8-4.9-2.7-1.2-7.3-2.4-10.2-2.4-3.1 0-10.6 2.4-16.9 5.3-6.3 3.2-11.3 6.8-11.3 8 0 1.2-3.4 5.8-7.5 9.7-4.1 3.9-7.3 8-7.3 8.9 0 1.2 1 2 2.4 2 1.3 0 2.7-1.2 3.7-2.5 0.7-1.2 7.9-6.7 16.4-12 11.6-7.5 17.4-9.7 25.4-9.7zm-11.1 76.1c1.9-3.8 6.2-7.9 9.4-8.9 3.1-1 13.5-1.9 22.7-1.9 10.9 0 16-0.8 14.5-2.2-1.2-1.5-9.2-3.6-17.4-4.9-10.4-1.9-17.6-1.9-22.5-0.2-3.8 1.2-6.7 3.1-6 4.1 0.5 1.2-0.5 4.8-2.4 8.5-2 3.8-3.2 8.2-2.9 9.6 0.5 1.7 2.6-0.2 4.6-4.1zm-832.4 19.9c-1.7-0.5-6.1 0.7-9.7 2.4-3.9 1.7-6.8 4.6-6.8 6 0 1.7 1.2 4.6 2.9 6.3 1.7 1.7 3.7 2.9 4.4 2.9 0.7 0 2.4-1 3.9-1.9 1.4-1 3.8-4.9 5.5-8.5 1.9-5.1 1.9-6.8-0.2-7.2zm-10.2 34c0.7-1.7 0.7-5 0-7.5-0.9-2.4-3.4-3.8-6.7-3.6-4.2 0.5-5.6 2.2-5.6 6.8 0 4.3 1.4 6.3 5.3 6.7 2.9 0.5 6.1-0.7 7-2.4zm-29.2 0.5c-2 0-4.1 1.2-4.9 2.4-0.7 1.2 0.3 4.1 2 6.1 1.4 2.2 3.6 3.8 4.8 3.6 1 0 2.4-1.7 2.9-3.6 0.7-2 0.7-4.9 0-6.1-0.7-1.2-2.9-2.4-4.8-2.4zm148.1 25.2c1-2.5 0.3-4.6-1.9-6.1-1.9-1.2-5.8-1.4-8.5-0.7-2.6 1-5.3 1.9-6 2.4-0.7 0.5 0.5 2.7 2.4 4.6 1.9 2.2 5.6 3.9 8 3.6 2.4 0 5.1-1.7 6-3.8zm-60.1 29.7c3.1-1.7 6.2-5.3 6.7-7.7 0.7-3.4-2.6-8.5-10.6-16.2q-11.6-11.6-17.7-11.6c-3.3 0-7.9 1.4-10.1 3.1-2.4 1.7-4.1 5.3-4.4 8.2 0 3.2 1.5 8.5 3.4 12.1 1.7 3.9 4.9 8 6.5 9.7 2 1.4 7.3 3.4 11.9 4.1 5.1 0.9 10.6 0.2 14.3-1.7zm102.9 49.5c-2.9 0.5-4.8 2.7-4.8 5.6 0 3.1 1.9 5.1 5.3 5.6 3.1 0.4 6-0.8 7.2-3.2 1-2.2 1-4.8-0.4-6.3-1.2-1.4-4.6-2.1-7.3-1.7zm-70.1 28.1c1-1.7 0.5-4.4-0.9-5.6-1.3-1.2-4.2-1.7-6.3-0.7-2 1.2-3.4 3.4-2.9 4.8 0.5 1.7 2.6 3.4 4.6 3.9 2.1 0.5 4.6-0.7 5.5-2.4zm1455 37.2c-1.9 1.2-3.4 3.9-2.9 6 0.2 2.5 2.9 4.6 5.6 5.1 2.9 0.5 6-0.7 7-2.4 0.9-1.7 0-4.8-2-6.8-2.4-2.1-5.3-2.9-7.7-1.9zm-889.7 57.5c-2.1-7.2-7-22.5-10.8-33.8-4.6-13.3-6.6-17.2-5.6-10.9 0.7 5.3 3.4 14.5 6 20.6 2.7 6 4.6 12.3 4.6 13.7 0 1.7 2.2 9.2 4.9 16.5 3.6 9.9 6.7 14.2 12.1 16.9 4.1 1.9 9.6 3.6 12.8 3.6 3.8-0.2 3.1-1-3.2-3.1-4.8-1.7-10.6-4.6-12.8-6.6-2.4-1.9-6-9.6-8-16.9zm886.3 70.9c1.9-1.2 3.3-3.4 2.8-4.9-0.4-1.7-2.6-3.4-4.5-3.8-2.2-0.5-4.6 0.7-5.6 2.4-1 1.7-0.5 4.3 1 5.5 1.2 1.2 4.1 1.7 6.3 0.8zm-898.3 17.3c0.7-1.9-0.3-4.3-2.2-5.5-2.2-1-5.1-0.5-6.3 0.7-1.5 1.2-1.9 3.9-1.2 5.3 0.7 1.7 2.9 3.2 4.8 3.2 2 0 4.1-1.7 4.9-3.7zm-127.9 3.7c-4.4 0-6 1.2-6 4.6 0.2 2.4 1.6 5 3.3 5.5 1.7 0.8 4.6 0.8 6.6 0.3 1.7-0.8 2.9-3.2 2.6-5.8-0.2-3.2-2.4-4.6-6.5-4.6zm541.4 21c2.2-1.7 3.6-5.1 3.1-7.7-0.5-3.2-2.9-5.1-6.7-5.6-3.4-0.5-6.8 0.7-7.8 2.4-0.9 1.7-1.9 4.4-1.9 6.1-0.2 1.7 1.9 4.1 4.3 5.3 3.4 1.7 6.1 1.7 9-0.5zm124.5 12.8q0 4.8 4.8 4.8 4.8 0 4.8-4.8 0-4.8-4.8-4.8-4.8 0-4.8 4.8zm-1059.9 6.1c-1.9-0.8-4.8 0.4-6 2.4-1.2 1.9-1.9 5.3-1.2 7.2 0.7 2 2.7 3.6 4.3 3.6 2 0 4.2-0.7 5.4-1.6 1.2-0.8 1.9-3.7 1.7-6.1-0.3-2.4-2.2-4.8-4.2-5.5zm835.6 16.6c2.4-2.9 2.4-4.1 0.2-6.5-1.7-1.7-4.6-2.2-6.8-1.2-1.9 1.2-3.6 3.4-3.6 5.3 0.3 2 1.7 3.9 3.6 4.6 2 0.7 4.9-0.2 6.6-2.2zm438.6-4.1c-2.6 1.2-4.1 3.9-3.6 6.8 0.5 2.9 2.9 5.1 6.1 5.6 3.1 0.4 6-0.8 7.2-3.2 1.2-2.4 0.5-5.1-1.7-7.5-2.4-2.2-5.3-2.9-8-1.7zm-653.7 25.9c2.4-2.9 2.4-4.1 0.2-6.5-1.7-1.7-4.6-2.2-6.8-1.2-1.9 1.2-3.6 3.3-3.6 5.3 0.3 1.9 1.7 3.8 3.6 4.6 2 0.7 4.9-0.3 6.6-2.2zm-238.6 34.1c0.5-2.7-0.2-8.5-1.4-12.8-2-6.6-3.4-7.8-9.7-7.8-5.1 0-9.7 2.4-14.5 7.3-3.9 3.8-7 9.4-7 12.1 0 2.6 1.2 7 2.4 9.6 1.7 3.4 4.8 4.9 10.4 4.6 4.1 0 10.4-0.9 13.5-2.2 3.4-1.2 5.8-3.1 5.8-4.1-0.2-0.9 0-4.1 0.5-6.7zm1147.1 14.2c2.9-3.4 2.6-4.6-1.9-8.4-3.2-2.7-7.3-4.1-9.2-3.4-2 0.7-3.7 3.4-3.7 6 0 2.7 2.2 6.1 4.9 7.3 2.6 1.2 5.3 2.4 5.8 2.4 0.5 0 2.4-1.7 4.1-3.9zm-262.5 20.3c2.7-1.4 6.3-4.3 8-6.5 1.7-2.2 2.9-6.3 2.9-9.4q0-5.3-7.3-9c-3.8-1.9-8.9-3.6-10.8-3.6-2 0-5.8 2.4-8.5 5.3-2.7 3.2-4.8 8.5-4.8 12.1 0 4.4 1.9 8.2 5.5 10.4 2.9 1.9 6.6 3.6 7.8 3.6 1.4 0 4.6-1.4 7.2-2.9zm-50.7 42.3c1.2-0.7 1.9-5 1.6-9.6-0.2-4.4 0.8-10.2 2-12.8q2.4-4.9 0-13.3c-1.2-4.6-4.9-10.2-7.8-12.1-3.1-2-10.1-3.7-15.7-3.7-8.2 0-12 1.7-19.1 7.8-4.5 4.3-9.6 11.8-11.1 16.4-2.2 7-1.9 9.7 1.2 15 2.7 4.6 8 8 15.7 10.4 6.3 1.9 15.8 3.6 21.3 3.6 5.3 0 10.6-0.7 11.9-1.7zm185.8 6.6c1.2-9 0.5-12.6-4.6-21.3-3.4-5.6-8.4-11.9-11.3-13.8-3.4-2.2-10.9-3.6-18.9-3.6-7.2 0-15.9 1.4-19.3 3.1-3.2 1.5-7.5 5.8-9.7 9.5-3.4 6.2-3.1 8.4 1.9 27.8 3.2 11.8 7.1 22.7 8.5 24.4 1.7 1.7 7.3 2.9 12.6 2.6 5.3 0 13-0.9 16.9-1.9 4.1-1 9.7-3.2 12.8-4.6 2.9-1.7 6.3-4.8 7.5-7.3 1-2.1 2.6-8.9 3.6-14.9zm-366.1 29.5c1.2-2.2 2.9-10.7 3.8-18.7 1-10.6 0.7-15.4-1.7-17.6-1.7-1.7-5.8-3.2-9.2-3.2-3.3 0.3-7.9 1.5-10.3 3.2-2.5 1.7-5.6 7.5-6.8 12.8-1.5 5.3-3.2 12.8-3.9 16.9-0.7 4.6 0 8 2.2 9 1.7 0.9 7.7 1.9 13.3 1.9 7.2 0 10.9-1.2 12.6-4.3zm-155.7 19.3c0 2.6 1.7 4.3 4.4 4.3q4.5 0 3.6-4.3c-0.5-2.2-2.4-4.1-4.4-4.1-1.9 0-3.6 1.9-3.6 4.1zm459.9 1c-1.2-2.2-3.6-3.9-5.5-3.9-1.9 0-4.4 1.4-5.1 2.9-0.7 1.7 0 4.3 1.9 6 2 2 4.6 2.2 6.8 1 2.2-1.5 2.9-3.6 1.9-6zm100.1 25.6c-1-2-3.9-2.9-6.5-2.4-2.9 0.4-4.9 2.6-4.9 5.5 0 3.2 2 5.1 5.1 5.6 2.9 0.5 5.8-0.8 6.5-2.4 0.8-1.7 0.5-4.6-0.2-6.3zm-919.9 27.8c1-1.5 0.7-4.9 0-7.3-0.7-2.2-2.9-4.1-4.3-4.1-1.7-0.2-4.6 1.5-6.1 3.6-2.4 2.9-2.4 4.4 0 7.3 1.5 2.2 4.4 3.8 6.1 3.6 1.7 0 3.6-1.4 4.3-3.1zm681.1 37.4c-5.8-3.6-7-3.8-12.8-0.5-4.3 2.7-6.5 6.1-6.8 11.7-0.4 5.7 0.8 8.7 4.9 11.3 2.9 1.9 6.5 3.6 7.7 3.6 1.5 0 5.1-1.7 8.2-3.6 4.1-2.9 5.6-6 5.3-11.1q-0.2-7-6.5-11.4zm141.2 31.5c-0.5-2.2-2.5-4.1-4.4-4.1-1.9 0-3.6 1.9-3.6 4.1 0 2.6 1.7 4.3 4.3 4.3q4.6 0 3.7-4.3zm-563.2 152c3.2-4.4 4.9-9.7 4.1-12.3-0.7-2.7-3.6-7-6.5-9.7-3.6-3.1-8.9-4.8-15.2-5.1-5.3 0-10.9 1.5-12.4 3.2-1.4 1.7-3.3 5.5-4.3 8.4-1 4.1 0.5 7.5 5.3 12.8 3.9 4.6 9.9 8 15.2 8.7 7.5 1.2 9.2 0.8 13.8-6zm772.7-350.7c-4.1 0-6 1.4-6 4.1 0 2.4 1.2 5.8 2.9 7.5 1.7 1.7 3.8 2.9 4.6 2.9 0.9 0 2.9-1.7 4.3-3.7 1.5-1.9 2.2-5.3 1.5-7.2-0.8-1.9-3.9-3.6-7.3-3.6zm-1197.8-217.3c0.2-3.7-1-4.9-3.9-4.4-2.4 0.3-4.3 2.2-4.3 4.1 0 2 1.7 3.9 4.1 4.4q3.8 0.7 4.1-4.1zm984.6-14.8c-1.7 0-3.3 1.7-3.8 3.9-0.3 2.2-0.3 4.8 0 6 0.5 1.2 2.9 2.2 5.3 2.2 2.6 0 5.3-1.4 6-3.1 0.5-1.5-0.2-4.4-1.7-6.1-1.7-1.7-4.3-2.9-5.8-2.9zm-19.8-1.9c1.7-4.4 1.7-8.2 0-12.1-1.9-3.9-4.1-5.1-8-3.9-3.1 0.8-7 2.7-8.7 4.4-1.9 1.4-2.6 4.8-1.9 8 1 3.4 4.4 6.5 8.9 7.9 6.8 2 7.5 1.7 9.7-4.3zm76.4-38c1.2-2.1 0.7-5-1-6.7-1.7-1.7-4.6-2.2-6.7-1.2-2 1.2-3.4 3.8-2.9 6 0.2 2.4 2.4 4.6 4.5 5.1 2.2 0.5 4.9-1 6.1-3.2zm-1225.9-178.3c-3.8 1.4-4.3 1.2-2.4-1.7 1.7-2.7 1.7-3.2-0.7-2-1.5 1.2-2.9 3.7-2.9 5.6 0 2.9 1.7 3.1 7.5 1.7 6.3-1.5 7.2-1 6.3 2.4-0.5 2.4 0 4.4 1.2 4.4 1.2 0 1.9-2.9 1.4-6.8-0.5-3.6-1.7-6.3-3.1-6.1-1.2 0.3-4.6 1.3-7.3 2.5z"/>
	<path id="Layer" fill-rule="evenodd" class="s2" d="m116.2 1362c-49.7-117.4-77.2-246.5-77.2-382 0-205.9 63.5-397 172-554.7q1.6-0.1 2.7-0.6c1.7-0.6 2.5-1.8 2.5-3.5 0-0.9-0.2-1.8-0.4-2.8 177.2-253 470.9-418.4 803.2-418.4 529.1 0 960.3 419.4 979.3 943.9-1 0-2.2 0.8-3.7 2.2-2.2 2-3.1 5.1-2.4 6.6 0.7 1.7 3.1 3.1 5.1 3.1q0.7 0 1.4-0.2 0.3 12.2 0.3 24.4c0 135.5-27.5 264.6-77.2 382zm866.5-1287.4c-3.1 4.3-4.8 9.6-4.1 12.3 0.7 2.6 3.6 7 6.5 9.7 3.7 3.1 9 4.8 15.3 5 5.3 0 10.8-1.4 12.3-3.1 1.4-1.7 3.4-5.6 4.3-8.5 1-4.1-0.4-7.5-5.3-12.8-3.8-4.6-9.9-8-15.2-8.7-7.5-1.2-9.2-0.7-13.8 6.1zm-563.1 152c0.5 2.2 2.4 4.1 4.3 4.1 1.2 0 2.3-0.7 3-1.8 0.4-0.6 0.7-1.5 0.7-2.3 0-2.7-1.7-4.4-4.4-4.4q-4.6 0-3.6 4.4zm141.1 31.4c5.8 3.6 7 3.9 12.8 0.5 4.4-2.7 6.6-6 6.8-11.6 0.5-5.8-0.7-8.7-4.8-11.4-2.9-1.9-6.6-3.6-7.8-3.6-1.4 0-5 1.7-8.2 3.6-4.1 2.9-5.5 6.1-5.3 11.2q0.2 7 6.5 11.3zm681.1 37.5c-1 1.4-0.7 4.8 0 7.2 0.7 2.2 2.9 4.1 4.4 4.1 1.7 0.3 4.6-1.4 6-3.6 2.4-2.9 2.4-4.3 0-7.2-1.4-2.2-4.3-3.9-6-3.7-1.7 0-3.7 1.5-4.4 3.2zm-913.3 30.2c2.9-0.5 4.8-2.7 4.8-5.6 0-3.1-1.9-5-5.1-5.5-2.9-0.5-5.8 0.7-6.5 2.4-0.7 1.7-0.5 4.6 0.2 6.3 1 1.9 3.9 2.9 6.6 2.4zm95.4 17.2c-2.1 1.4-2.9 3.6-1.9 6 1.2 2.2 3.6 3.9 5.6 3.9 1.9 0 4.3-1.5 5-2.9 0.4-0.9 0.4-2.1 0-3.3-0.4-1-1-2-1.9-2.8-1.9-1.9-4.6-2.1-6.8-0.9zm454.4 11.1c0.8 0 1.5-0.3 2.1-0.8 0.9-0.8 1.5-2 1.5-3.3 0-2.7-1.7-4.4-4.3-4.4q-4.6 0-3.6 4.4 0.2 0.8 0.6 1.6c0.9 1.4 2.3 2.5 3.7 2.5zm-152 15.2c-1.2 2.2-2.9 10.6-3.9 18.6-0.9 10.7-0.7 15.5 1.7 17.7 1.7 1.7 5.8 3.1 9.2 3.1 3.4-0.2 8-1.4 10.4-3.1 2.4-1.7 5.6-7.5 6.8-12.8 1.4-5.4 3.1-12.9 3.8-17 0.8-4.6 0-7.9-2.1-8.9-1.7-1-7.8-1.9-13.3-1.9-7.3 0-10.9 1.2-12.6 4.3zm-355.1 7.3c-2.9 1.6-6.2 4.8-7.4 7.2-0.4 0.9-1 2.6-1.5 4.7-0.8 2.9-1.6 6.7-2.2 10.3-1.2 8.9-0.5 12.6 4.6 21.3 1.6 2.6 3.5 5.3 5.5 7.7 2.2 2.7 4.3 5 5.9 6 3.4 2.2 10.9 3.7 18.8 3.7 7.3 0 16-1.5 19.4-3.2 3.1-1.4 7.5-5.8 9.6-9.4 3.4-6.3 3.2-8.5-1.9-27.8-3.1-11.8-7-22.7-8.5-24.4-1.7-1.7-7.2-2.9-12.5-2.7-5.3 0-13.1 1-16.9 2-1.7 0.4-3.6 0.9-5.5 1.6-2.7 1-5.5 2.1-7.4 3zm174.8 28.7c-1.2 0.7-1.9 5.1-1.7 9.7 0.2 4.3-0.7 10.1-1.9 12.8q-2.5 4.8 0 13.3c1.2 4.6 4.8 10.1 7.7 12.1 3.1 1.9 10.1 3.6 15.7 3.6 8.2 0 12.1-1.7 19.1-7.7 4.6-4.4 9.7-11.9 11.1-16.5 2.2-7 2-9.6-1.2-15-2.6-4.5-8-7.9-15.7-10.3-6.3-2-15.7-3.7-21.3-3.7-5.3 0-10.6 0.8-11.8 1.7zm-50.8 42.3c-2.6 1.5-6.3 4.4-7.9 6.5-1.7 2.2-2.9 6.3-2.9 9.5q0 5.3 7.2 8.9c3.9 2 8.9 3.6 10.9 3.6 1.9 0 5.8-2.4 8.4-5.3 2.7-3.1 4.9-8.4 4.9-12.1 0-4.3-2-8.2-5.6-10.4-2.9-1.9-6.5-3.6-7.7-3.6-0.8 0-2.1 0.4-3.5 1.1-1.2 0.5-2.5 1.2-3.8 1.8zm-262.4 20.3c-2.9 3.4-2.7 4.6 1.9 8.5 3.1 2.6 7.2 4.1 9.2 3.4 1.9-0.8 3.6-3.4 3.6-6.1 0-2.6-2.2-6-4.8-7.2-2.7-1.2-5.4-2.4-5.8-2.4-0.5 0-2.5 1.6-4.1 3.8zm1147 14.3c-0.5 2.6 0.3 8.4 1.5 12.8 1.9 6.5 3.4 7.7 9.6 7.7 5.1 0 9.7-2.4 14.5-7.2 3.9-3.9 7-9.4 7-12.1 0-2.7-1.2-7-2.4-9.7-1.7-3.4-4.8-4.8-10.4-4.6-4.1 0-10.4 1-13.5 2.2-3.4 1.2-5.8 3.2-5.8 4.1 0.2 1 0 4.1-0.5 6.8zm-238.5 34.1c-2.4 2.9-2.4 4.1-0.3 6.5 0.9 0.9 2.2 1.4 3.4 1.6 1.2 0.2 2.4 0.1 3.4-0.4 1.9-1.2 3.6-3.4 3.6-5.3-0.2-2-1.7-3.9-3.6-4.6-1.9-0.7-4.8 0.2-6.5 2.2zm-653.8 25.8c2.7-1.2 4.1-3.8 3.6-6.7-0.5-2.9-2.9-5.1-6-5.6-3.2-0.5-6.1 0.7-7.3 3.1-1.2 2.5-0.5 5.1 1.7 7.5 2.4 2.2 5.3 2.9 8 1.7zm438.7-4.1c-2.5 2.9-2.5 4.1-0.3 6.5 1.7 1.7 4.6 2.2 6.8 1.3 1.9-1.3 3.6-3.4 3.6-5.4-0.2-1.9-1.7-3.8-3.6-4.6-1.9-0.7-4.8 0.3-6.5 2.2zm835.5 16.7c1.9 0.7 4.8-0.5 6-2.4 1.2-2 2-5.3 1.2-7.3-0.7-1.9-2.6-3.6-4.3-3.6-0.7 0-1.4 0.1-2.1 0.3-1.3 0.3-2.5 0.8-3.2 1.4-1.2 0.7-2 3.6-1.7 6 0.2 2.5 2.2 4.9 4.1 5.6zm-1059.8 6q0-4.8-4.9-4.8-4.8 0-4.8 4.8 0 4.9 4.8 4.9 4.9 0 4.9-4.9zm124.5 12.9c-2.2 1.6-3.7 5-3.2 7.7 0.5 3.1 2.9 5.1 6.8 5.5 3.4 0.5 6.7-0.7 7.7-2.4 1-1.7 1.9-4.3 1.9-6 0.3-1.7-1.9-4.1-4.3-5.3-3.4-1.7-6.1-1.7-8.9 0.5zm534.8 16.4c0.3 3.1 2.4 4.6 6.5 4.6 4.4 0 6.1-1.2 6.1-4.6-0.3-2.4-1.7-5.1-3.4-5.6-0.8-0.3-1.9-0.5-3-0.5-1.3-0.1-2.5 0-3.5 0.3-1.3 0.5-2.3 2-2.6 3.9q-0.2 0.9-0.1 1.9zm-121.3 8.2c-0.7 1.9 0.2 4.4 2.2 5.6 2.1 0.9 5 0.4 6.2-0.8 1.5-1.2 2-3.8 1.2-5.3-0.7-1.7-2.9-3.1-4.8-3.1-1.9 0-4.1 1.7-4.8 3.6zm-955.7 38.4c-2.9 8.5-2.6 9.2 7.3 21.6 5.5 6.7 13.5 16.1 17.6 20.5 4.4 4.8 9.7 7.7 13.3 7.7 3.4 0.3 10.7-3.1 16.2-7.2 5.8-3.9 12.1-9.7 14.3-12.6 2.2-3.1 3.1-8.2 2.6-11.6-0.7-3.4-4.1-8-7.5-10.1-3.6-2.7-7.2-8.3-8.4-13.3-1.5-5.1-4.6-12.1-7.3-15.7-3.6-4.9-7-6.8-11.8-6.6-3.6 0-10.4 2.7-15.2 5.3-4.9 2.9-10.9 7.3-13.3 9.5-2.7 2.1-6.1 7.7-7.8 12.5zm1123.7 6.1c-0.3 3.6 0.9 4.8 3.8 4.3 2.4-0.2 4.4-2.1 4.4-4.1 0-1.9-1.7-3.8-4.1-4.3q-3.9-0.8-4.1 4.1zm-984.7 14.7c1 0 2-0.5 2.7-1.5 0.6-0.6 1-1.4 1.2-2.3 0.2-2.2 0.2-4.9 0-6.1-0.5-1.2-2.9-2.2-5.3-2.2-2.7 0-5.4 1.5-6.1 3.2-0.5 1.4 0.3 4.3 1.7 6 1.7 1.7 4.4 2.9 5.8 2.9zm19.8 2c-1.7 4.3-1.7 8.2 0 12 2 3.9 4.1 5.1 8 3.9 3.1-0.7 7-2.6 8.7-4.3 1.9-1.5 2.7-4.9 1.9-8-0.9-3.4-4.3-6.5-8.9-8-6.8-1.9-7.5-1.7-9.7 4.4zm784.8 27c2.2 7.3 7 22.5 10.9 33.9 4.6 13.3 6.5 17.1 5.5 10.8-0.7-5.3-3.4-14.5-6-20.5-2.7-6-4.6-12.3-4.6-13.8 0-1.7-2.2-9.2-4.8-16.4-3.7-9.9-6.8-14.3-12.1-16.9-4.1-2-9.7-3.7-12.8-3.7-2 0.2-2.8 0.4-2.2 0.9 0.5 0.5 2.2 1.2 5.3 2.3 4.8 1.7 10.6 4.6 12.8 6.5 2.4 1.9 6.1 9.7 8 16.9zm-861.1 10.9c-1.3 2.2-0.8 5.1 0.9 6.8 1.7 1.7 4.6 2.2 6.8 1.2 1.9-1.2 3.4-3.9 2.9-6.1-0.2-1.5-1.2-3-2.4-4-0.7-0.5-1.5-0.9-2.2-1-2.2-0.5-4.8 0.9-6 3.1zm-36.3 44.7c2.4 2.2 5.3 2.9 7.7 2 2-1.3 3.4-3.9 2.9-6.1-0.2-2.4-2.9-4.6-5.5-5.1-2.9-0.4-6.1 0.8-7 2.5-0.4 0.5-0.5 1.3-0.4 2.1 0.2 1.6 1 3.4 2.3 4.6zm1514.5 41c2.1-1.6 4-3 5.1-4 2.6-2.2 6-7.7 7.7-12.6 2.9-8.4 2.7-9.2-7.2-21.5-5.6-6.8-13.6-16.2-17.7-20.5-4.3-4.9-9.6-7.8-13.3-7.8-3.4-0.2-10.6 3.2-16.2 7.3-5.8 3.8-12 9.6-14.2 12.5-2.2 3.2-3.2 8.3-2.7 11.6 0.7 3.4 4.1 8 7.5 10.2 3.6 2.7 7.3 8.2 8.5 13.3 1.4 5.1 4.6 12.1 7.2 15.7 3.6 4.8 7 6.8 11.9 6.5 3.6 0 10.4-2.6 15.2-5.3 2.6-1.6 5.6-3.6 8.2-5.4zm-126.1 26.1c1.4 0.3 2.9 0.4 4.2 0.1 2.9-0.5 4.9-2.6 4.9-5.5 0-3.2-2-5.1-5.4-5.6-3.1-0.5-6 0.7-7.2 3.1-1 2.2-1 4.9 0.5 6.3 0.6 0.8 1.7 1.3 3 1.6zm107.2 49.7c-3.2 1.7-6.3 5.3-6.8 7.7-0.7 3.4 2.7 8.5 10.6 16.2q11.7 11.6 17.7 11.6c3.4 0 8-1.4 10.1-3.1 2.5-1.7 4.2-5.4 4.4-8.3 0-3.1-1.5-8.4-3.4-12-0.9-2.2-2.3-4.4-3.6-6.2-1.1-1.5-2.2-2.8-2.9-3.5-1.9-1.5-7.3-3.4-11.9-4.1-5-1-10.6-0.3-14.2 1.7zm-233.5 16.9c3.9-1.5 4.4-1.2 2.4 1.7-1.7 2.6-1.7 3.1 0.7 1.9 0.9-0.7 1.7-1.8 2.3-2.9 0.4-0.9 0.6-1.8 0.6-2.6 0-2.9-1.6-3.2-7.4-1.7-6.3 1.4-7.3 0.9-6.3-2.5 0.5-2.4 0-4.3-1.2-4.3-1.2 0-2 2.9-1.5 6.8 0.5 3.6 1.7 6.2 3.2 6 1.2-0.2 4.5-1.2 7.2-2.4zm173.3 12.8c-1 2.4-0.2 4.6 1.9 6 2 1.3 5.8 1.5 8.5 0.8 2.7-1 5.3-2 6-2.4 0.8-0.5-0.4-2.7-2.4-4.6-1.9-2.2-5.5-3.9-8-3.7-2.4 0-5 1.7-6 3.9zm143.3 22.7c0.7 1.2 2.9 2.4 4.9 2.4 0.6 0 1.3-0.1 1.9-0.3 1.3-0.5 2.4-1.3 2.9-2.1 0.7-1.2-0.3-4.1-1.9-6-1.5-2.2-3.7-3.9-4.9-3.6-0.9 0-2.4 1.6-2.9 3.6-0.3 0.9-0.5 2-0.5 3.1 0 1.2 0.1 2.3 0.5 2.9zm-24.4 2.9c-0.7 1.7-0.7 5.1 0 7.5 1 2.4 3.4 3.9 6.8 3.6 4.1-0.4 5.5-2.1 5.5-6.7 0-4.4-1.4-6.3-5.3-6.8-2.9-0.5-6 0.7-7 2.4zm-11.7 32.8c0.2 0.7 0.7 1.1 1.6 1.3 1.7 0.5 6-0.7 9.6-2.4 3.9-1.7 6.8-4.6 6.8-6.1 0-1.6-1.2-4.5-2.9-6.2-0.7-0.8-1.5-1.4-2.2-1.9-0.9-0.7-1.7-1-2.2-1-0.7 0-2.4 0.9-3.8 1.9-1.5 1-3.9 4.8-5.6 8.5-1.1 3-1.6 4.8-1.3 5.9zm-830.8 21.1c-2 3.9-6.3 8-9.4 9-3.2 0.9-13.6 1.9-22.8 1.9-10.8 0-15.9 0.7-14.5 2.2 1.2 1.4 9.2 3.6 17.4 4.8 10.4 1.9 17.7 1.9 22.5 0.3 3.9-1.3 6.8-3.2 6.1-4.2-0.5-1.2 0.4-4.8 2.4-8.4 1.9-3.9 3.1-8.2 2.9-9.7-0.3-0.8-0.9-0.8-1.8 0-0.8 0.7-1.9 2.2-2.8 4.1zm-11.1 76.2c-5.6 0-10.2 1.2-10.2 2.4 0 0.7 0.7 1.7 1.8 2.8 0.8 0.7 1.9 1.5 3 2 2.7 1.2 7.3 2.4 10.2 2.4 3.1 0 10.6-2.4 16.9-5.3 6.3-3.1 11.4-6.8 11.4-8 0-1.2 3.4-5.8 7.5-9.6 4.1-3.9 7.2-8 7.2-9 0-1.2-1-1.9-2.4-1.9-1.2 0-2.7 1.2-3.6 2.4-0.8 1.2-8 6.8-16.5 12.1-11.6 7.5-17.4 9.7-25.3 9.7zm-614.2-6.3c-0.2 0.7 3.4 7 7.5 13.5 4.4 6.8 8.5 11.6 9.2 10.9 0.7-0.5-1.7-6-5.6-12.1-3.6-6-7.5-11.6-8.7-12.3-1.2-0.7-2.1-0.7-2.4 0zm531 9.4c0.3 1.7 3.9 4.1 8.2 5.8 4.4 1.7 12.8 7 18.9 12.1 6 5.3 19.6 13.5 30.2 18.6 14.7 7.3 23.4 9.7 36.7 10.9 9.7 0.7 17.7 0.7 17.7-0.3 0-1.2-2.4-2.4-5.6-3.1-2.9-0.5-22.7-10.4-44-21.5-21.2-11.4-42.5-22-47.1-23.9-4.8-2-10.1-2.9-12.1-2.5-0.8 0.4-1.5 0.8-2 1.4-0.7 0.8-1 1.7-0.9 2.5zm17.9 61.1c0.5 0.9 1.5 1.8 2.4 2.2 1.1 0.3 2.3 2.1 3.3 4.5 0.6 1.6 1.2 3.4 1.6 5.2 1.2 4.8 5 10.9 9.1 14.5 3.9 3.4 9.2 6.1 11.4 6.1 2.4 0 14.5 6.5 26.6 14.5 12.3 7.9 22.9 16.1 23.7 18.1 0.7 1.9 3.8 3.6 7.2 3.6 3.4 0 9.7-2.2 13.8-4.8 7.7-4.6 7.7-4.9 1.9-4.9-3.4 0-13.5-4.6-22.4-10.1-9-5.8-25.9-17.4-37.5-26.1-11.6-8.7-24.9-18.1-29.5-21-4.6-2.9-9.2-5.6-10.4-5.6-1 0-1.7 1.2-1.7 2.4 0 0.4 0.2 0.9 0.5 1.4zm-617.3 88.5c0.3 1 2.4 1.5 4.6 0.8 2.4-0.8 14.8 1.9 27.3 6 12.6 3.9 24.4 7.2 25.9 7.2 1.7 0 3.1-1.6 3.1-3.6 0-1.9-4.6-5.5-10.4-8.2-5.5-2.4-16.2-5.3-23.4-6.3-7.3-0.7-15-1.9-17.2-2.6-1.9-0.5-5.3 0.2-7 1.9-0.8 0.7-1.4 1.5-1.9 2.2-0.8 1.1-1.1 2.1-1 2.6zm7.8 26.1c0 3.9 2.4 5.4 12.5 7.5 4 0.7 9.8 2.1 15.7 3.6 4.5 1.2 9.1 2.5 12.8 3.7 8.7 2.6 18.4 4.6 21.8 4.1 5.3-0.7 4.8-1.5-6-7.3-6.8-3.3-21.3-8.7-32.7-11.3-11.3-2.9-21.2-5.1-22.4-5.1-1 0-1.7 2.2-1.7 4.8zm812.6-940.2c-1.2-4.9-5.1-10.9-9.2-14.5-3.9-3.4-9.2-6.1-11.3-6.1-2.5 0-14.5-6.5-26.6-14.5-12.4-8-23-16.2-23.7-18.1-0.7-2-3.9-3.6-7.3-3.6-3.4 0-9.6 2.1-13.7 4.8-7.8 4.6-7.8 4.8-2 4.8 3.4 0 13.6 4.6 22.5 10.2 8.9 5.8 25.9 17.4 37.5 26.1 11.6 8.7 24.9 18.1 29.4 21 4.6 2.9 9.2 5.6 10.4 5.6 1 0 1.7-1.2 1.7-2.5 0-1.2-1.4-2.9-2.9-3.6-1.7-0.5-3.8-4.8-4.8-9.6zm22.2 76.8c2-0.7 3.2-2.4 2.9-3.8-0.2-1.7-3.8-4.2-8.2-5.8-4.3-1.7-12.8-7.1-18.8-12.1-6.1-5.4-19.6-13.6-30.2-18.6-14.8-7.3-23.5-9.7-36.8-10.9-9.7-0.7-17.6-0.7-17.6 0.2 0 1.2 2.4 2.4 5.5 3.2 2.9 0.4 22.7 10.4 44 21.5 21.3 11.3 42.6 22 47.1 23.9 4.9 1.9 10.2 2.9 12.1 2.4zm521.4-15.1c-2.1-2.7-3.7-4.2-4.1-3.7-0.8 0.4 1.6 6 5.5 12.1 3.6 6 7.5 11.6 8.7 12.3 1.2 0.7 2.2 0.7 2.4 0 0.3-0.7-3.4-7-7.5-13.6-1.8-2.8-3.5-5.2-5-7.1zm-643.4 36.1c0.7-1.2 8-6.7 16.4-12 11.6-7.5 17.4-9.7 25.4-9.7 5.6 0 10.1-1.2 10.1-2.4 0-1.2-2.1-3.6-4.8-4.9-2.7-1.2-7.2-2.4-10.1-2.4-3.2 0-10.7 2.4-17 5.3-6.2 3.2-11.3 6.8-11.3 8 0 1.2-3.4 5.8-7.5 9.7-4.1 3.9-7.3 8-7.3 8.9 0 1.2 1 2 2.5 2 0.8 0 1.8-0.7 2.7-1.5q0.5-0.5 0.9-1zm62.8 43.6c10.9 0 16-0.8 14.5-2.2-1.2-1.5-9.2-3.6-17.4-4.9-10.4-1.9-17.6-1.9-22.5-0.2-3.8 1.2-6.7 3.1-6 4.1 0.5 1.2-0.5 4.8-2.4 8.5-2 3.8-3.2 8.2-2.9 9.6 0.2 0.7 0.7 0.8 1.3 0.4 0.9-0.6 2.1-2.2 3.3-4.5 1.9-3.8 6.3-7.9 9.4-8.9 3.1-1 13.5-1.9 22.7-1.9zm-869.8 46.4c1.4-1 3.8-4.9 5.5-8.5 2-5.1 2-6.8-0.2-7.2-1.7-0.5-6.1 0.7-9.7 2.4-3.8 1.7-6.7 4.6-6.7 6 0 0.8 0.2 1.9 0.7 3 0.5 1.2 1.3 2.4 2.2 3.3 1.6 1.7 3.6 2.9 4.3 2.9 0.7 0 2.4-1 3.9-1.9zm-11.6 7.2c-4.1 0.5-5.6 2.2-5.6 6.8 0 4.3 1.5 6.3 5.3 6.8 2.9 0.4 6.1-0.8 7-2.5 0.8-1.7 0.8-5 0-7.5-0.9-2.4-3.3-3.8-6.7-3.6zm-17.7 20.1c0.8-2 0.8-4.9 0-6.1-0.7-1.2-2.9-2.4-4.8-2.4-1 0-2 0.3-2.9 0.8-0.9 0.5-1.6 1-1.9 1.6-0.8 1.2 0.2 4.1 1.9 6.1 0.6 1 1.4 1.8 2.2 2.5 1 0.8 2 1.2 2.6 1.1 1 0 2.4-1.7 2.9-3.6zm141.4 10.6c-1.9-1.2-5.8-1.4-8.4-0.7-2.7 1-5.4 1.9-6.1 2.4-0.7 0.5 0.5 2.7 2.4 4.6 2 2.2 5.6 3.9 8 3.6 2.4 0 5.1-1.7 6.1-3.8q0.6-1.7 0.2-3.1c-0.2-1.2-1-2.2-2.2-3zm-62.1 11.9q-11.6-11.6-17.6-11.6c-3.4 0-8 1.4-10.2 3.1-2.4 1.7-4.1 5.3-4.3 8.2 0 3.2 1.4 8.5 3.3 12.1 1.7 3.9 4.9 8 6.6 9.7 1.9 1.4 7.2 3.4 11.8 4.1 5.1 0.9 10.6 0.2 14.3-1.7 3.1-1.7 6.3-5.3 6.7-7.7 0.8-3.4-2.6-8.5-10.6-16.2zm114.6 81.4c0.9-2.2 0.9-4.8-0.5-6.3-1.2-1.4-4.6-2.1-7.3-1.7-2.9 0.5-4.8 2.7-4.8 5.6 0 3.1 1.9 5.1 5.3 5.6 3.2 0.4 6.1-0.8 7.3-3.2zm-85.1 13.8c-0.9 0.5-1.6 1.3-2.2 2-0.7 1-1 2-0.7 2.8 0.5 1.7 2.6 3.4 4.6 3.9 2.2 0.5 4.6-0.7 5.5-2.4 1-1.7 0.5-4.4-0.9-5.6-1.2-1.2-4.1-1.7-6.3-0.7zm1471.9 52.2c1-1.7 0-4.8-1.9-6.8-2.5-2.1-5.4-2.9-7.8-1.9-1.9 1.2-3.4 3.9-2.9 6 0.3 2.5 2.9 4.6 5.6 5.1 2.9 0.5 6-0.7 7-2.4zm-878.6 72.3c-4.8-1.7-10.6-4.6-12.8-6.6-2.4-1.9-6-9.6-7.9-16.9-2.2-7.2-7.1-22.5-10.9-33.8-4.6-13.3-6.5-17.2-5.6-10.9 0.7 5.3 3.4 14.5 6.1 20.6 2.6 6 4.6 12.3 4.6 13.7 0 1.7 2.1 9.2 4.8 16.5 3.6 9.9 6.8 14.2 12.1 16.9 4.1 1.9 9.6 3.6 12.8 3.6 3.9-0.2 3.1-1-3.2-3.1zm858.2 41.1c-1 1.7-0.5 4.3 1 5.5 0.8 0.8 2.3 1.3 3.9 1.3 0.8 0 1.6-0.2 2.4-0.5 1.1-0.7 2-1.7 2.5-2.8 0.4-0.7 0.6-1.5 0.4-2.1-0.5-1.7-2.7-3.4-4.6-3.8-2.2-0.5-4.6 0.7-5.6 2.4zm-899.5 18.8c-1.4 1.2-1.9 3.9-1.2 5.3 0.7 1.7 2.9 3.2 4.8 3.2 2 0 4.1-1.7 4.9-3.7 0.7-1.9-0.3-4.3-2.2-5.5-2.2-1-5.1-0.5-6.3 0.7zm-115.5 18.9c1.7-0.8 2.9-3.2 2.6-5.8-0.2-3.2-2.4-4.6-6.5-4.6-4.3 0-6 1.2-6 4.6 0.2 2.4 1.7 5 3.4 5.5 1.6 0.8 4.5 0.8 6.5 0.3zm533.9-2.7c-3.4-0.5-6.8 0.7-7.8 2.4-0.9 1.7-1.9 4.4-1.9 6.1-0.2 1.7 1.9 4.1 4.4 5.3 3.3 1.7 6 1.7 8.9-0.5 2.2-1.7 3.6-5.1 3.1-7.7-0.4-3.2-2.9-5.1-6.7-5.6zm137.7 26.1q0-4.8-4.8-4.8-4.8 0-4.8 4.8 0 4.8 4.8 4.8 4.8 0 4.8-4.8zm-1065.5 14.6c0.2-1 0.3-2 0.2-3-0.3-2.4-2.2-4.8-4.1-5.5-2-0.8-4.9 0.4-6.1 2.4-1.2 1.9-1.9 5.3-1.2 7.2 0.4 1 1.1 2 1.9 2.6 0.8 0.7 1.6 1.1 2.5 1.1 1.9 0 4.1-0.8 5.3-1.7 0.7-0.5 1.3-1.7 1.5-3.1zm825.1 0.4c-2 1.2-3.7 3.4-3.7 5.3 0.3 2 1.7 3.9 3.7 4.6 1.9 0.7 4.8-0.2 6.5-2.2 2.4-2.9 2.4-4.1 0.2-6.5-1.7-1.7-4.6-2.2-6.7-1.2zm454.8 12.8c1.2-2.4 0.5-5.1-1.7-7.5-1.3-1.2-2.8-1.9-4.3-2.2-1.2-0.2-2.4 0-3.6 0.5-2.7 1.2-4.2 3.9-3.7 6.8 0.5 2.9 2.9 5.1 6.1 5.6 3.1 0.4 6-0.8 7.2-3.2zm-669.9 9c-2 1.2-3.7 3.3-3.7 5.3 0.3 1.9 1.7 3.8 3.7 4.6 1.9 0.7 4.8-0.3 6.5-2.2 2.4-2.9 2.4-4.1 0.2-6.5-1.7-1.7-4.6-2.2-6.7-1.2zm-233.4 49.9c0.5-0.5 0.8-1 0.8-1.4-0.1-0.6-0.1-2.2 0.1-4 0.1-0.9 0.3-1.9 0.4-2.7 0.5-2.7-0.2-8.5-1.4-12.8-2-6.6-3.4-7.8-9.7-7.8-5.1 0-9.7 2.4-14.5 7.3-3.9 3.8-7 9.4-7 12.1 0 2.6 1.2 7 2.4 9.6 1.7 3.4 4.9 4.9 10.4 4.6 4.1 0 10.4-0.9 13.5-2.2 2.2-0.7 4-1.8 5-2.7zm1137.3-5.7c-2 0.7-3.6 3.4-3.6 6 0 2.7 2.1 6.1 4.8 7.3 2.6 1.2 5.3 2.4 5.8 2.4 0.5 0 2.4-1.7 4.1-3.9 2.9-3.4 2.7-4.6-1.9-8.4-3.2-2.7-7.3-4.1-9.2-3.4zm-240.5 16.2q0-5.3-7.3-9c-3.8-1.9-8.9-3.6-10.8-3.6-2 0-5.8 2.4-8.5 5.3-2.6 3.2-4.8 8.5-4.8 12.1 0 4.4 1.9 8.2 5.5 10.4 2.9 1.9 6.6 3.6 7.8 3.6 1.4 0 4.6-1.4 7.2-2.9 2.7-1.4 6.3-4.3 8-6.5 1.7-2.2 2.9-6.3 2.9-9.4zm-58 22.5c-1.2-4.6-4.8-10.2-7.7-12.1-3.2-2-10.2-3.7-15.8-3.7-8.2 0-12 1.7-19 7.8-4.6 4.3-9.7 11.8-11.2 16.4-2.1 7-1.9 9.7 1.2 15 2.7 4.6 8 8 15.8 10.4 6.2 1.9 15.7 3.6 21.2 3.6 5.3 0 10.7-0.7 11.9-1.7 1.2-0.7 1.9-5 1.7-9.6-0.3-4.4 0.7-10.2 1.9-12.8q2.4-4.9 0-13.3zm171.1 64.5c2.9-1.7 6.3-4.8 7.5-7.2 1-2.2 2.7-9 3.6-15 1.2-9 0.5-12.6-4.6-21.3-3.3-5.6-8.4-11.9-11.3-13.8-3.4-2.2-10.9-3.6-18.9-3.6-7.2 0-15.9 1.4-19.3 3.1-3.2 1.5-7.5 5.8-9.7 9.5-3.4 6.2-3.1 8.4 2 27.8 3.1 11.8 7 22.7 8.4 24.4 1.7 1.7 7.3 2.9 12.6 2.6 5.3 0 13-0.9 16.9-1.9 4.1-1 9.7-3.1 12.8-4.6zm-351.2-11.4c1-10.6 0.8-15.4-1.7-17.6-0.9-0.9-2.5-1.8-4.4-2.4-1.5-0.5-3.2-0.8-4.7-0.8-3.4 0.3-8 1.5-10.4 3.2-2.5 1.7-5.6 7.5-6.8 12.8-1.5 5.3-3.1 12.8-3.9 16.9-0.7 4.6 0 8 2.2 9 1.7 0.9 7.7 1.9 13.3 1.9 7.2 0 10.9-1.2 12.6-4.3 0.4-0.8 0.9-2.3 1.4-4.4 0.9-3.7 1.8-9.1 2.4-14.3zm-151.5 38c-0.5-2.2-2.4-4.1-4.4-4.1-1.9 0-3.6 1.9-3.6 4.1 0 2.6 1.7 4.3 4.4 4.3q4.6 0 3.6-4.3zm441.3 0c-0.7 1.7 0 4.3 2 6 1.9 2 4.5 2.2 6.7 1q1.4-0.9 2-2.2c0.5-1.1 0.5-2.4 0-3.8-1.3-2.2-3.7-3.9-5.6-3.9-1.9 0-4.4 1.4-5.1 2.9zm104.4 35.3c2.9 0.5 5.8-0.7 6.6-2.4 0.7-1.7 0.4-4.6-0.3-6.3-1-2-3.9-2.9-6.5-2.4-2.9 0.4-4.8 2.6-4.8 5.5 0 3.2 1.9 5.1 5 5.6zm-917.9 7.7c-1.7-0.2-4.6 1.5-6.1 3.6-2.4 2.9-2.4 4.4 0 7.3 1.5 2.2 4.4 3.9 6.1 3.6 1.7 0 3.6-1.4 4.3-3.1 1-1.5 0.8-4.9 0-7.3-0.7-2.2-2.9-4.1-4.3-4.1zm686.6 71.3c4.1-2.9 5.6-6 5.3-11.1q-0.2-7-6.5-11.4c-5.8-3.6-7-3.8-12.8-0.4-4.3 2.6-6.5 6-6.8 11.6-0.4 5.8 0.8 8.7 4.9 11.3 2.9 2 6.5 3.6 7.7 3.6 1.5 0 5.1-1.6 8.2-3.6zm132 9c0 2.6 1.7 4.3 4.3 4.3q1.9 0 2.8-0.7 1.5-1 0.9-3.6c-0.5-2.2-2.4-4.1-4.4-4.1-1.9 0-3.6 1.9-3.6 4.1zm-557.6 130c-3.6-3.1-8.9-4.8-15.2-5.1-1.6 0-3.3 0.2-4.8 0.4-3.5 0.5-6.5 1.6-7.5 2.8-1.5 1.7-3.4 5.5-4.4 8.4-1 4.1 0.5 7.5 5.3 12.8 3.9 4.6 9.9 8 15.3 8.7 7.4 1.2 9.1 0.8 13.7-6 3.2-4.4 4.9-9.7 4.1-12.3-0.7-2.7-3.6-7-6.5-9.7zm780.9-317.9c1.5-1.9 2.2-5.3 1.5-7.2-0.8-1.9-3.9-3.6-7.3-3.6-4.1 0-6 1.4-6 4.1 0 2.4 1.2 5.8 2.9 7.5 1.7 1.7 3.8 2.9 4.6 2.9 0.6 0 1.5-0.7 2.5-1.6 0.6-0.6 1.3-1.3 1.8-2.1zm-1211.8-228.4c0 2 1.7 3.9 4.1 4.4q3.9 0.7 4.1-4.1c0.2-3.7-1-4.9-3.9-4.4-2.4 0.3-4.3 2.2-4.3 4.1zm1000.3-5.5c0.5-1.5-0.2-4.4-1.7-6.1-1.6-1.7-4.3-2.9-5.8-2.9-1.6 0-3.3 1.7-3.8 3.9-0.2 1.7-0.3 3.7-0.1 5q0 0.6 0.1 1c0.5 1.2 2.9 2.2 5.3 2.2 2.7 0 5.3-1.4 6-3.1zm-35.2-26.9c-3.2 0.8-7.1 2.7-8.8 4.4-1.9 1.4-2.6 4.8-1.9 8 1 3.4 4.4 6.5 9 7.9 6.7 2 7.5 1.7 9.6-4.3 1.7-4.4 1.7-8.2 0-12.1-1.9-3.9-4.1-5.1-7.9-3.9zm83.3-28.7c-1.7-1.7-4.6-2.2-6.7-1.2-2 1.2-3.4 3.8-2.9 6 0.2 2.4 2.4 4.6 4.6 5.1 1.1 0.2 2.3 0 3.4-0.6 1.1-0.6 2-1.5 2.6-2.6 0.5-0.9 0.7-2 0.7-3.1-0.2-1.4-0.7-2.7-1.7-3.6zm-1214.5-168c-0.4-3.6-1.7-6.3-3.1-6.1-1.2 0.3-4.6 1.3-7.3 2.5-3.8 1.4-4.3 1.2-2.4-1.7 1.7-2.7 1.7-3.2-0.7-2-1.4 1.2-2.9 3.7-2.9 5.6 0 2.9 1.7 3.1 7.5 1.7 6.3-1.5 7.2-1 6.3 2.4-0.5 2.4 0 4.4 1.2 4.4 1.2 0 1.9-2.9 1.4-6.8z"/>
	<path id="Layer" class="s0" d="m60.8 773.3c3 2.8 6.8 6.5 10.7 10.7 8.7 9.5 19.8 19 24.4 21.3 8 4.1 8.8 3.9 27-4.9 10-4.9 21.4-9 25-9 3.6 0.3 12.3 4.4 19.3 9.5 7.1 5.2 15.9 12.4 20 16 3.9 3.6 7 8.5 7 10.5 0 2.1-6 13.9-12.9 26.5-11.3 19.5-12.6 23.1-9.8 28.3 1.6 3.1 4.1 6.9 5.7 8.5 1.5 1.8 8.7 5.6 15.7 8.7 7.2 3.1 15.9 5.9 20 6.7q7 1 8.3-2.8c0.7-2.6 4.6-3.9 10.2-3.9 7.5 0 9.6 1.3 11.9 7.2 1.5 3.9 6.9 10.5 12.1 15.2 5.4 4.6 10.2 8.2 11.5 8.5 1.1 0 3.1-3.6 4.4-7.8 1.8-5.4 4.1-7.7 8.5-7.7 3.1 0 9.5 1.6 14.1 3.9 6.2 2.8 10.3 3.3 16.7 1.3 4.4-1.6 11.9-2.6 16-2.6 4.4 0.3 14.1 2.8 36 11.8l24.4-20.5c13.4-11.1 25.2-21.9 26.5-23.9 1-1.8 3.1-3.4 4.4-3.4 1.5 0 8.7-5.1 16.2-11.3 7.2-6.2 42.4-32.9 77.9-59.6 35.5-26.8 70.7-52 78.4-56.4 7.7-4.1 21.4-8.9 30.6-10.7 10.3-2.1 27.8-2.9 45-2.1 15.7 0.8 42.2 3.6 59.2 6.2 17 2.8 38.3 5.6 47.6 6.6 9.2 1.1 43.9 5.7 77.1 10.8 16.1 2.4 35.2 5.2 53.2 7.9 19 2.7 36.8 5.3 48.4 7.1 22.6 3.3 48.6 7.4 57.9 9.2 15.4 2.8 18.5 2.6 41.1-3.3 8.8-2.6 20.3-5.5 30.2-8.1 5.2-1.3 9.9-2.5 13.5-3.5 14.4-3.3 28.6-4.6 56.6-4.4 20.6 0 48.9 1.6 63 3.4 10.8 1.3 31.8 4.2 52.2 7 6.3 0.8 12.6 1.7 18.5 2.5 14.3 2.1 32 4.6 47.8 6.8 11.4 1.7 21.9 3.2 29.4 4.2 17.7 2.9 46 7.8 63 11.4 16.9 3.6 44.7 9 61.7 12 16.9 3.1 38.3 8 47.6 10.8 9.2 2.9 24.9 9 34.7 13.7 13.6 6.1 21.8 12.3 33.4 24.6 8.5 9.3 17.7 20.9 20.6 26 4.1 7.5 7.7 10.3 18 13.4 7.2 2.3 20.3 8.5 29.3 13.6 9 5.4 17.7 12.9 19.8 17 2 3.8 3.3 10 3.1 13.6-0.8 5.9-3.1 7.7-18.8 13.1-9.8 3.6-19.5 7.7-21.1 9.3-2.5 2.5-2.5 5.1 0 12.8 2.3 7.5 4.4 9.5 9 9.5 3.1 0 14.2 2.3 24.5 5.2 10 2.6 30 5.9 44.2 7.2 21.8 1.8 28.8 3.6 46.3 11.8 11.3 5.1 22.6 11.6 24.9 13.9 3.4 3.1 4.6 8.7 4.6 20.6 0 8.7 1.3 18.2 2.6 21 1.6 2.9 6.4 6.2 11.1 7.8 6.4 1.8 8.7 1.5 10.8-1.1 1.5-2 6.2-4.1 10.3-4.4 4.3-0.5 10 0.6 12.8 2.1 4.6 2.6 4.9 3.9-1.3 18.8l13.7 4.9c4.5 1.6 10.6 3.8 16.2 5.8 3.3 1.2 6.3 2.3 8.7 3.2 11.1 4.1 11.6 4.1 14.9-1.1 2.1-3.3 5.9-5.1 10.8-5.1q7.7 0 11.6 5.9c2.1 3.1 3.9 7.7 3.9 10.3 0 3.3 2.5 4.6 11 5.4 5.9 0.5 13.6 1.8 17.2 2.8 3.6 1 10.1 2.3 14.2 3.1 4.3 0.8 9.3 2.8 11.5 4.6-22.4 138.7-73.9 267.8-148.1 380.6q-3.7 0-7.4-0.1c-45.3-0.2-87.5-1.5-93.9-2.5-6.4-1.3-12.3-2.1-13.4-1.8-1.2 0.2-12.8 2.3-25.7 4.3-13.1 2.3-26.7 5.2-30.3 6.5-3.6 1.5-25.5 4.8-48.9 7.4-23.4 2.8-49.4 5.2-57.8 5.2-8.5 0-22.9 1.2-32.2 2.5-9.2 1.6-31.4 7.5-49.4 13.1-18.2 5.7-33.9 10.3-35.4 10.3-1.3 0-8.5 2.6-15.5 5.9-7.2 3.1-13.1 7-13.1 8.3 0 1.3 3.3 4.1 7.2 5.6 3.9 1.8 9.5 5.7 12.4 8.8 2.8 2.8 9.2 7.2 14.1 9.2 4.9 2.1 18.8 6.7 30.9 10.3 12 3.3 25.9 9 30.8 12.1 4.9 3.3 11.8 6.7 15.4 7.9 3.6 1.1 9 3.4 12.4 5.5 4.4 2.8 8.2 3 18 1 6.7-1.6 19-2.1 27.5-1 8.5 0.7 18.5 3.5 22.6 6.4 3.9 2.6 8.3 4.9 9.5 4.9 1.6 0 4.4 3.6 6.5 7.7 3.5 7.4 3.3 7.2-9.9-3.5l-0.4-0.4c-7.7-6.4-15.9-11.6-18-11.6-2.1 0-11.1 1.9-19.8 3.7-9 2-26 9.2-38.1 15.9-12.1 6.4-24.1 13.9-27 16.4-2.8 2.6-16.2 9-29.5 14.2-13.4 5.1-29.4 10-35.5 11-9.3 1.6-10.8 1.3-10.8-2.5 0-2.6 2-5.7 4.6-7 2.3-1.3 3.3-3.3 2.3-4.6-1.3-1-11.8-2.6-23.1-3.1-17.3-0.5-25 0.5-41.7 5.7-11.3 3.8-30.3 9.7-42.4 13.3-12.1 3.6-22.1 6.2-22.4 5.4-0.5-1 5.9-3.8 14.1-6.9 8-2.8 16-6.2 17.3-7.5 1.5-1.2 9.7-5.6 18.8-10 8.7-4.3 15.9-9.5 15.9-11-0.3-1.8 2.1-5.2 5.1-7.2 2.9-2.1 10.6-16.8 17-32.2 6.4-15.4 12.9-29.8 14.1-31.3q2.4-3.4-2.8-10.3c-3.1-4.1-5.4-8.8-5.1-10.3 0-1.8-3.1-3.6-7-3.6-2.6-0.2-6.7-0.3-10.7-0.5-2.4-0.1-4.7-0.2-6.7-0.3-6.2-0.2-16-3.8-38.6-16.4l-55.3 2.3c-30.4 1-60.4 3.3-66.9 4.9-6.4 1.5-18 6.6-25.7 11.3-7.7 4.6-19.8 11-27 14.1-6.9 3.1-18 9.3-24.4 13.6-6.5 4.4-25.5 13.7-42.5 20.6-16.9 7.2-39.3 17.8-49.6 23.7-10.5 5.6-26.5 16.7-35.5 24.1-12.6 10.3-15.9 14.4-14.4 17.8 1.3 3.1 0.8 3.8-2 3.1-2.1-0.8-4.2-3.6-4.7-6.5-0.5-2.5 1.1-6.7 3.4-8.7 2.3-2.1 4.1-5.4 3.8-7 0-1.7 1.3-3.3 2.6-3.3 1.5 0 2.1 1.3 1.3 2.6-0.8 1.3 4.1-1 11-5.4 6-3.7 19.5-12.5 31.8-20.6q2.4-1.5 4.8-3.1c13.3-8.7 33.1-19.5 43.7-23.9 10.5-4.6 33.7-15.9 51.4-25.4 20.1-10.7 27.5-14.7 27.1-15.8-0.2-0.7-3.1-0.4-7.8 0.1-6.9 0.8-23.1 3.1-36 5.1-12.6 2.1-39.9 7.5-60.4 11.6-20.6 4.4-44.5 8-53.3 8-9 0-16.2 1-16.2 2.5 0 1.3 2.6 2.6 5.9 2.3h34.8c16.4 0.3 29.3 1.3 30 2.9 0.8 1.5-5.1 3.3-13.3 4.6-8.3 1-34.5 1.5-58.6 1.3-30.1-0.3-52.5-1.8-72.1-5.4-16.2-2.8-28.8-3.9-29.5-2.6-0.8 1.3-3.1 0.5-5.2-1.8-2-2.3-11.3-6.4-37.3-14.6l-14.6 5.4c-8.2 3-14.9 6.1-14.9 7.4-0.3 1 10.5 5.4 23.6 10 13.1 4.4 32.7 9.3 43.2 11.1 10.6 1.5 23.9 2.3 29.6 2 5.7-0.5 21.1 0.6 34.5 1.8 13.1 1.6 24.4 3.4 24.9 4.7 0.5 1-19 1.8-43.2 1.8-24.4 0-47.3 0.7-50.9 1.5-5.4 1-5.2 0.8 9-5.9l-15.4-1.8c-8.5-1.3-27-5.6-41.2-10-14.1-4.4-32.1-8.5-39.9-9.5-6.6-0.9-21.7-3.1-35.7-5.2q-3.4-0.5-6.7-1c-25.2-3.9-33.2-3.9-72-1-26.7 2-74.8 3.1-123.4 2.5-60.5-0.5-82.3-1.8-90-4.3-5.7-2.1-25.2-6.2-43.7-9.3-18.3-3.1-41.4-5.6-51.5-5.6-9.8 0-29.8 2.5-44.2 5.6-6.3 1.2-12.2 2.4-16.9 3.3-6.2 1.3-10.4 2.1-10.9 2.1-0.8 0-1.3 1.6-1.3 3.4 0 2.3 4.7 2.5 39.9-0.6l-11.6 3.9c-7.7 2.6-16.4 3.3-27 2.3-8.5-1-25.2-3.8-37.3-6.4-3.1-0.7-6.2-1.3-9.2-1.9-137.8-168.8-220.5-384.4-220.5-619.4 0-70.9 7.5-140.1 21.8-206.7z"/>
	<path id="Layer" class="s0" d="m370.3 1616.7c-6.4-4.1-13.4-7.7-15.4-7.7-2.1 0-5.7 2.6-8 5.9-2.3 3.1-3.3 8.5-2.6 12.1 0.5 3.6 3.6 9.2 6.5 12.8l5.1 6.5c15.7-16 18-17 19-14.2 1.3 3.4 1.8 3.4 4.2 0 1.5-2 2.8-4.6 2.8-5.6 0-1.3-5.2-5.7-11.6-9.8z"/>
	<path id="Layer" class="s0" d="m714.9 1623.1c-2.1-0.7-4.9-1.2-6.2-1.2-1.3 0-3.1 1.8-3.8 3.8-1.1 2.8 0.2 3.9 4.9 3.9 3.6 0 6.9-1.3 7.7-2.6 0.7-1.3-0.5-3.1-2.6-3.9z"/>
	<path id="Layer" class="s0" d="m919.1 1666.6c0.5-0.5-0.5-1-2.6-0.8-2 0-11.8 2.1-21.8 4.4-10.3 2.3-19.6 5.1-20.6 6.4-1.3 1.1-1.3 3.1 0.2 4.4 1.8 1.8 9.3 0 23.2-5.4 11.3-4.4 21.1-8.5 21.6-9z"/>
	<path id="Layer" class="s0" d="m515.1 1675.3c-1.8-1-5.4-2-7.7-2-2.6 0-6.2 3.6-8.5 7.7-3.6 7.4-3.6 7.7 2.8 11 4.9 2.4 7.7 2.4 10.8 0.3 2.3-1.5 4.6-5.7 5.2-9 0.5-3.3-0.8-6.9-2.6-8z"/>
	<path id="Layer" class="s0" d="m810.1 1691.3c4.6-2.1 4.6-2.3-1.3-2.1-3.6 0-9.3 0.5-12.9 1-1.7 0.3-5.2 0.8-9.6 1.5-4.6 0.7-10.3 1.6-15.6 2.4-10.3 1.8-18.5 4.1-18.5 5.1 0 1.3 2 2.4 4.6 2.4 2.3 0 10.3-1.8 17.2-3.9 7.2-2.3 17-4.1 21.9-4.1 4.9 0 11.3-1 14.2-2.3z"/>
	<path id="Layer" class="s0" d="m746.8 1700.3c0.5-0.8-2.3-1.3-6.4-1.1-4.2 0.3-27.8 2.9-52.5 6.2-24.7 3.1-57.1 7.7-72 10-14.9 2.4-27.5 4.9-28 5.4-0.5 0.8 1 1.3 3.8 1.3 2.6 0 32.2-3.6 65.3-7.7 33.2-4.1 66.9-8.7 74.6-10.3 7.7-1.5 14.7-3.3 15.2-3.8z"/>
	<path id="Layer" class="s0" d="m1027.3 1705.2c-6.4-3.4-13.3-6.2-15.4-6-2 0-9 2.9-15.7 6-6.4 3-12.8 7.1-14.6 9.2-1.6 2.1-3.1 4.6-3.1 5.9 0 1 5.4 4.7 12.3 8.2 8.5 4.7 16 6.7 25.5 6.5 8.2 0 14.9-1.6 17.2-3.9 2.3-2 4.4-6.1 4.9-9 0.3-2.8 0.5-6.4 0.5-7.9 0-1.6-5.1-5.7-11.6-9z"/>
</svg>